%TF.GenerationSoftware,KiCad,Pcbnew,(5.1.6)-1*%
%TF.CreationDate,2021-08-19T12:25:39+02:00*%
%TF.ProjectId,_Asclepios-Ohmmeter-v2,b5417363-6c65-4706-996f-732d4f686d6d,rev?*%
%TF.SameCoordinates,PXc65d40PYa4fc540*%
%TF.FileFunction,Legend,Top*%
%TF.FilePolarity,Positive*%
%FSLAX46Y46*%
G04 Gerber Fmt 4.6, Leading zero omitted, Abs format (unit mm)*
G04 Created by KiCad (PCBNEW (5.1.6)-1) date 2021-08-19 12:25:39*
%MOMM*%
%LPD*%
G01*
G04 APERTURE LIST*
%ADD10C,0.300000*%
%ADD11C,0.150000*%
%ADD12C,0.120000*%
G04 APERTURE END LIST*
D10*
X178357142Y146442858D02*
X179071428Y143442858D01*
X179642857Y145585715D01*
X180214285Y143442858D01*
X180928571Y146442858D01*
X182071428Y145014286D02*
X183071428Y145014286D01*
X183500000Y143442858D02*
X182071428Y143442858D01*
X182071428Y146442858D01*
X183500000Y146442858D01*
X184785714Y143442858D02*
X184785714Y146442858D01*
X185928571Y146442858D01*
X186214285Y146300000D01*
X186357142Y146157143D01*
X186500000Y145871429D01*
X186500000Y145442858D01*
X186357142Y145157143D01*
X186214285Y145014286D01*
X185928571Y144871429D01*
X184785714Y144871429D01*
X187642857Y144300000D02*
X189071428Y144300000D01*
X187357142Y143442858D02*
X188357142Y146442858D01*
X189357142Y143442858D01*
X192214285Y146442858D02*
X193928571Y146442858D01*
X193071428Y143442858D02*
X193071428Y146442858D01*
X194928571Y143442858D02*
X194928571Y145442858D01*
X194928571Y144871429D02*
X195071428Y145157143D01*
X195214285Y145300000D01*
X195500000Y145442858D01*
X195785714Y145442858D01*
X197214285Y143442858D02*
X196928571Y143585715D01*
X196785714Y143728572D01*
X196642857Y144014286D01*
X196642857Y144871429D01*
X196785714Y145157143D01*
X196928571Y145300000D01*
X197214285Y145442858D01*
X197642857Y145442858D01*
X197928571Y145300000D01*
X198071428Y145157143D01*
X198214285Y144871429D01*
X198214285Y144014286D01*
X198071428Y143728572D01*
X197928571Y143585715D01*
X197642857Y143442858D01*
X197214285Y143442858D01*
X199214285Y145442858D02*
X199928571Y143442858D01*
X200642857Y145442858D02*
X199928571Y143442858D01*
X199642857Y142728572D01*
X199500000Y142585715D01*
X199214285Y142442858D01*
X202928571Y143585715D02*
X202642857Y143442858D01*
X202071428Y143442858D01*
X201785714Y143585715D01*
X201642857Y143871429D01*
X201642857Y145014286D01*
X201785714Y145300000D01*
X202071428Y145442858D01*
X202642857Y145442858D01*
X202928571Y145300000D01*
X203071428Y145014286D01*
X203071428Y144728572D01*
X201642857Y144442858D01*
X204214285Y143585715D02*
X204500000Y143442858D01*
X205071428Y143442858D01*
X205357142Y143585715D01*
X205500000Y143871429D01*
X205500000Y144014286D01*
X205357142Y144300000D01*
X205071428Y144442858D01*
X204642857Y144442858D01*
X204357142Y144585715D01*
X204214285Y144871429D01*
X204214285Y145014286D01*
X204357142Y145300000D01*
X204642857Y145442858D01*
X205071428Y145442858D01*
X205357142Y145300000D01*
X182142857Y138642858D02*
X182142857Y141642858D01*
X183142857Y139500000D01*
X184142857Y141642858D01*
X184142857Y138642858D01*
X186857142Y138642858D02*
X186857142Y140214286D01*
X186714285Y140500000D01*
X186428571Y140642858D01*
X185857142Y140642858D01*
X185571428Y140500000D01*
X186857142Y138785715D02*
X186571428Y138642858D01*
X185857142Y138642858D01*
X185571428Y138785715D01*
X185428571Y139071429D01*
X185428571Y139357143D01*
X185571428Y139642858D01*
X185857142Y139785715D01*
X186571428Y139785715D01*
X186857142Y139928572D01*
X188000000Y138642858D02*
X189571428Y140642858D01*
X188000000Y140642858D02*
X189571428Y138642858D01*
X190714285Y138642858D02*
X190714285Y140642858D01*
X190714285Y141642858D02*
X190571428Y141500000D01*
X190714285Y141357143D01*
X190857142Y141500000D01*
X190714285Y141642858D01*
X190714285Y141357143D01*
X192142857Y138642858D02*
X192142857Y140642858D01*
X192142857Y140357143D02*
X192285714Y140500000D01*
X192571428Y140642858D01*
X193000000Y140642858D01*
X193285714Y140500000D01*
X193428571Y140214286D01*
X193428571Y138642858D01*
X193428571Y140214286D02*
X193571428Y140500000D01*
X193857142Y140642858D01*
X194285714Y140642858D01*
X194571428Y140500000D01*
X194714285Y140214286D01*
X194714285Y138642858D01*
X197285714Y138785715D02*
X197000000Y138642858D01*
X196428571Y138642858D01*
X196142857Y138785715D01*
X196000000Y139071429D01*
X196000000Y140214286D01*
X196142857Y140500000D01*
X196428571Y140642858D01*
X197000000Y140642858D01*
X197285714Y140500000D01*
X197428571Y140214286D01*
X197428571Y139928572D01*
X196000000Y139642858D01*
X201857142Y141642858D02*
X201857142Y139500000D01*
X201714285Y139071429D01*
X201428571Y138785715D01*
X201000000Y138642858D01*
X200714285Y138642858D01*
X170928571Y133842858D02*
X170928571Y136842858D01*
X171928571Y134700000D01*
X172928571Y136842858D01*
X172928571Y133842858D01*
X175642857Y135842858D02*
X175642857Y133842858D01*
X174357142Y135842858D02*
X174357142Y134271429D01*
X174500000Y133985715D01*
X174785714Y133842858D01*
X175214285Y133842858D01*
X175500000Y133985715D01*
X175642857Y134128572D01*
X177500000Y133842858D02*
X177214285Y133985715D01*
X177071428Y134271429D01*
X177071428Y136842858D01*
X178214285Y135842858D02*
X179357142Y135842858D01*
X178642857Y136842858D02*
X178642857Y134271429D01*
X178785714Y133985715D01*
X179071428Y133842858D01*
X179357142Y133842858D01*
X180357142Y133842858D02*
X180357142Y135842858D01*
X180357142Y136842858D02*
X180214285Y136700000D01*
X180357142Y136557143D01*
X180500000Y136700000D01*
X180357142Y136842858D01*
X180357142Y136557143D01*
X181500000Y135842858D02*
X182071428Y133842858D01*
X182642857Y135271429D01*
X183214285Y133842858D01*
X183785714Y135842858D01*
X184928571Y133842858D02*
X184928571Y135842858D01*
X184928571Y135271429D02*
X185071428Y135557143D01*
X185214285Y135700000D01*
X185500000Y135842858D01*
X185785714Y135842858D01*
X188071428Y133842858D02*
X188071428Y135414286D01*
X187928571Y135700000D01*
X187642857Y135842858D01*
X187071428Y135842858D01*
X186785714Y135700000D01*
X188071428Y133985715D02*
X187785714Y133842858D01*
X187071428Y133842858D01*
X186785714Y133985715D01*
X186642857Y134271429D01*
X186642857Y134557143D01*
X186785714Y134842858D01*
X187071428Y134985715D01*
X187785714Y134985715D01*
X188071428Y135128572D01*
X189499999Y135842858D02*
X189499999Y132842858D01*
X189499999Y135700000D02*
X189785714Y135842858D01*
X190357142Y135842858D01*
X190642857Y135700000D01*
X190785714Y135557143D01*
X190928571Y135271429D01*
X190928571Y134414286D01*
X190785714Y134128572D01*
X190642857Y133985715D01*
X190357142Y133842858D01*
X189785714Y133842858D01*
X189499999Y133985715D01*
X192214285Y134985715D02*
X194499999Y134985715D01*
X195499999Y136842858D02*
X197214285Y136842858D01*
X196357142Y133842858D02*
X196357142Y136842858D01*
X199357142Y133985715D02*
X199071428Y133842858D01*
X198499999Y133842858D01*
X198214285Y133985715D01*
X198071428Y134271429D01*
X198071428Y135414286D01*
X198214285Y135700000D01*
X198499999Y135842858D01*
X199071428Y135842858D01*
X199357142Y135700000D01*
X199499999Y135414286D01*
X199499999Y135128572D01*
X198071428Y134842858D01*
X200642857Y133985715D02*
X200928571Y133842858D01*
X201499999Y133842858D01*
X201785714Y133985715D01*
X201928571Y134271429D01*
X201928571Y134414286D01*
X201785714Y134700000D01*
X201499999Y134842858D01*
X201071428Y134842858D01*
X200785714Y134985715D01*
X200642857Y135271429D01*
X200642857Y135414286D01*
X200785714Y135700000D01*
X201071428Y135842858D01*
X201499999Y135842858D01*
X201785714Y135700000D01*
X202785714Y135842858D02*
X203928571Y135842858D01*
X203214285Y136842858D02*
X203214285Y134271429D01*
X203357142Y133985715D01*
X203642857Y133842858D01*
X203928571Y133842858D01*
X206071428Y133985715D02*
X205785714Y133842858D01*
X205214285Y133842858D01*
X204928571Y133985715D01*
X204785714Y134271429D01*
X204785714Y135414286D01*
X204928571Y135700000D01*
X205214285Y135842858D01*
X205785714Y135842858D01*
X206071428Y135700000D01*
X206214285Y135414286D01*
X206214285Y135128572D01*
X204785714Y134842858D01*
X207500000Y133842858D02*
X207500000Y135842858D01*
X207500000Y135271429D02*
X207642857Y135557143D01*
X207785714Y135700000D01*
X208071428Y135842858D01*
X208357142Y135842858D01*
X211500000Y136557143D02*
X211642857Y136700000D01*
X211928571Y136842858D01*
X212642857Y136842858D01*
X212928571Y136700000D01*
X213071428Y136557143D01*
X213214285Y136271429D01*
X213214285Y135985715D01*
X213071428Y135557143D01*
X211357142Y133842858D01*
X213214285Y133842858D01*
D11*
X0Y160000000D02*
X233000000Y160000000D01*
X0Y0D02*
X0Y160000000D01*
X233000000Y0D02*
X0Y0D01*
X233000000Y160000000D02*
X233000000Y0D01*
D12*
%TO.C,J1*%
X14940000Y126326000D02*
X14940000Y121226000D01*
X36340000Y128866000D02*
X36340000Y123776000D01*
X27230000Y123776000D02*
X27230000Y121226000D01*
X27230000Y121236000D02*
X14940000Y121226000D01*
X27230000Y123776000D02*
X36340000Y123776000D01*
X14940000Y136486000D02*
X27230000Y136486000D01*
X27230000Y139026000D02*
X27640000Y139026000D01*
X27230000Y136486000D02*
X27230000Y139026000D01*
X36340000Y139026000D02*
X27640000Y139026000D01*
X14940000Y126326000D02*
X14940000Y136486000D01*
X36340000Y139026000D02*
X36340000Y128866000D01*
%TO.C,J2*%
X14686000Y91720000D02*
X14686000Y86620000D01*
X36086000Y94260000D02*
X36086000Y89170000D01*
X26976000Y89170000D02*
X26976000Y86620000D01*
X26976000Y86630000D02*
X14686000Y86620000D01*
X26976000Y89170000D02*
X36086000Y89170000D01*
X14686000Y101880000D02*
X26976000Y101880000D01*
X26976000Y104420000D02*
X27386000Y104420000D01*
X26976000Y101880000D02*
X26976000Y104420000D01*
X36086000Y104420000D02*
X27386000Y104420000D01*
X14686000Y91720000D02*
X14686000Y101880000D01*
X36086000Y104420000D02*
X36086000Y94260000D01*
%TO.C,J3*%
X14432000Y56414000D02*
X14432000Y51314000D01*
X35832000Y58954000D02*
X35832000Y53864000D01*
X26722000Y53864000D02*
X26722000Y51314000D01*
X26722000Y51324000D02*
X14432000Y51314000D01*
X26722000Y53864000D02*
X35832000Y53864000D01*
X14432000Y66574000D02*
X26722000Y66574000D01*
X26722000Y69114000D02*
X27132000Y69114000D01*
X26722000Y66574000D02*
X26722000Y69114000D01*
X35832000Y69114000D02*
X27132000Y69114000D01*
X14432000Y56414000D02*
X14432000Y66574000D01*
X35832000Y69114000D02*
X35832000Y58954000D01*
%TO.C,JC1*%
X35260000Y12218000D02*
X30180000Y12218000D01*
X30180000Y12218000D02*
X27640000Y12218000D01*
X35260000Y12218000D02*
X36310000Y12218000D01*
X36340000Y22378000D02*
X36340000Y12218000D01*
X14940000Y9678000D02*
X14940000Y19838000D01*
X36340000Y22378000D02*
X27640000Y22378000D01*
X27640000Y12218000D02*
X27230000Y12218000D01*
X27230000Y12218000D02*
X27230000Y9678000D01*
X27230000Y19838000D02*
X27230000Y22378000D01*
X27230000Y22378000D02*
X27640000Y22378000D01*
X14940000Y9678000D02*
X27230000Y9678000D01*
X14940000Y19838000D02*
X27230000Y19838000D01*
%TO.C,JCI1*%
X35260000Y22378000D02*
X30180000Y22378000D01*
X30180000Y22378000D02*
X27640000Y22378000D01*
X35260000Y22378000D02*
X36310000Y22378000D01*
X36340000Y32538000D02*
X36340000Y22378000D01*
X14940000Y19838000D02*
X14940000Y29998000D01*
X36340000Y32538000D02*
X27640000Y32538000D01*
X27640000Y22378000D02*
X27230000Y22378000D01*
X27230000Y22378000D02*
X27230000Y19838000D01*
X27230000Y29998000D02*
X27230000Y32538000D01*
X27230000Y32538000D02*
X27640000Y32538000D01*
X14940000Y19838000D02*
X27230000Y19838000D01*
X14940000Y29998000D02*
X27230000Y29998000D01*
%TO.C,K41*%
X93426000Y139026000D02*
X93426000Y126326000D01*
X93426000Y126326000D02*
X62946000Y126326000D01*
X62946000Y126326000D02*
X62946000Y139026000D01*
X62946000Y139026000D02*
X93426000Y139026000D01*
%TO.C,K42*%
X93172000Y104420000D02*
X93172000Y91720000D01*
X93172000Y91720000D02*
X62692000Y91720000D01*
X62692000Y91720000D02*
X62692000Y104420000D01*
X62692000Y104420000D02*
X93172000Y104420000D01*
%TO.C,K43*%
X92918000Y68352000D02*
X92918000Y55652000D01*
X92918000Y55652000D02*
X62438000Y55652000D01*
X62438000Y55652000D02*
X62438000Y68352000D01*
X62438000Y68352000D02*
X92918000Y68352000D01*
%TO.C,KC1*%
X85552000Y31776000D02*
X85552000Y19076000D01*
X85552000Y19076000D02*
X55072000Y19076000D01*
X55072000Y19076000D02*
X55072000Y31776000D01*
X55072000Y31776000D02*
X85552000Y31776000D01*
%TO.C,DI1*%
X94769000Y27366000D02*
X91829000Y27366000D01*
X94769000Y27126000D02*
X91829000Y27126000D01*
X94769000Y27246000D02*
X91829000Y27246000D01*
X93299000Y21686000D02*
X93299000Y22706000D01*
X93299000Y29166000D02*
X93299000Y28146000D01*
X94769000Y22706000D02*
X94769000Y28146000D01*
X91829000Y22706000D02*
X94769000Y22706000D01*
X91829000Y28146000D02*
X91829000Y22706000D01*
X94769000Y28146000D02*
X91829000Y28146000D01*
%TO.C,JUSB1*%
X226328000Y22318000D02*
X224998000Y22318000D01*
X226328000Y23648000D02*
X226328000Y22318000D01*
X226328000Y24918000D02*
X223668000Y24918000D01*
X223668000Y24918000D02*
X223668000Y32598000D01*
X226328000Y24918000D02*
X226328000Y32598000D01*
X226328000Y32598000D02*
X223668000Y32598000D01*
%TO.C,Q16*%
X132972000Y52188000D02*
X132972000Y56038000D01*
X130173193Y56484400D02*
G75*
G03*
X128672000Y54128000I1098807J-2356400D01*
G01*
X132394045Y51805369D02*
G75*
G03*
X132972000Y52188000I-1122045J2322631D01*
G01*
X130173193Y51771600D02*
G75*
G02*
X128672000Y54128000I1098807J2356400D01*
G01*
X132384264Y56430383D02*
G75*
G02*
X132972000Y56038000I-1112264J-2302383D01*
G01*
%TO.C,Q19*%
X131364000Y36934000D02*
X135214000Y36934000D01*
X135660400Y39732807D02*
G75*
G03*
X133304000Y41234000I-2356400J-1098807D01*
G01*
X130981369Y37511955D02*
G75*
G03*
X131364000Y36934000I2322631J1122045D01*
G01*
X130947600Y39732807D02*
G75*
G02*
X133304000Y41234000I2356400J-1098807D01*
G01*
X135606383Y37521736D02*
G75*
G02*
X135214000Y36934000I-2302383J1112264D01*
G01*
%TO.C,Q18*%
X143640000Y52188000D02*
X143640000Y56038000D01*
X140841193Y56484400D02*
G75*
G03*
X139340000Y54128000I1098807J-2356400D01*
G01*
X143062045Y51805369D02*
G75*
G03*
X143640000Y52188000I-1122045J2322631D01*
G01*
X140841193Y51771600D02*
G75*
G02*
X139340000Y54128000I1098807J2356400D01*
G01*
X143052264Y56430383D02*
G75*
G02*
X143640000Y56038000I-1112264J-2302383D01*
G01*
%TO.C,Q17*%
X138306000Y52188000D02*
X138306000Y56038000D01*
X135507193Y56484400D02*
G75*
G03*
X134006000Y54128000I1098807J-2356400D01*
G01*
X137728045Y51805369D02*
G75*
G03*
X138306000Y52188000I-1122045J2322631D01*
G01*
X135507193Y51771600D02*
G75*
G02*
X134006000Y54128000I1098807J2356400D01*
G01*
X137718264Y56430383D02*
G75*
G02*
X138306000Y56038000I-1112264J-2302383D01*
G01*
%TO.C,Q15*%
X140240000Y72070000D02*
X140240000Y68220000D01*
X143038807Y67773600D02*
G75*
G03*
X144540000Y70130000I-1098807J2356400D01*
G01*
X140817955Y72452631D02*
G75*
G03*
X140240000Y72070000I1122045J-2322631D01*
G01*
X143038807Y72486400D02*
G75*
G02*
X144540000Y70130000I-1098807J-2356400D01*
G01*
X140827736Y67827617D02*
G75*
G02*
X140240000Y68220000I1112264J2302383D01*
G01*
%TO.C,Q14*%
X134906000Y72070000D02*
X134906000Y68220000D01*
X137704807Y67773600D02*
G75*
G03*
X139206000Y70130000I-1098807J2356400D01*
G01*
X135483955Y72452631D02*
G75*
G03*
X134906000Y72070000I1122045J-2322631D01*
G01*
X137704807Y72486400D02*
G75*
G02*
X139206000Y70130000I-1098807J-2356400D01*
G01*
X135493736Y67827617D02*
G75*
G02*
X134906000Y68220000I1112264J2302383D01*
G01*
%TO.C,Q13*%
X129572000Y72070000D02*
X129572000Y68220000D01*
X132370807Y67773600D02*
G75*
G03*
X133872000Y70130000I-1098807J2356400D01*
G01*
X130149955Y72452631D02*
G75*
G03*
X129572000Y72070000I1122045J-2322631D01*
G01*
X132370807Y72486400D02*
G75*
G02*
X133872000Y70130000I-1098807J-2356400D01*
G01*
X130159736Y67827617D02*
G75*
G02*
X129572000Y68220000I1112264J2302383D01*
G01*
%TO.C,Q11*%
X138560000Y88256000D02*
X138560000Y92106000D01*
X135761193Y92552400D02*
G75*
G03*
X134260000Y90196000I1098807J-2356400D01*
G01*
X137982045Y87873369D02*
G75*
G03*
X138560000Y88256000I-1122045J2322631D01*
G01*
X135761193Y87839600D02*
G75*
G02*
X134260000Y90196000I1098807J2356400D01*
G01*
X137972264Y92498383D02*
G75*
G02*
X138560000Y92106000I-1112264J-2302383D01*
G01*
%TO.C,Q12*%
X143894000Y88256000D02*
X143894000Y92106000D01*
X141095193Y92552400D02*
G75*
G03*
X139594000Y90196000I1098807J-2356400D01*
G01*
X143316045Y87873369D02*
G75*
G03*
X143894000Y88256000I-1122045J2322631D01*
G01*
X141095193Y87839600D02*
G75*
G02*
X139594000Y90196000I1098807J2356400D01*
G01*
X143306264Y92498383D02*
G75*
G02*
X143894000Y92106000I-1112264J-2302383D01*
G01*
%TO.C,Q9*%
X140494000Y107630000D02*
X140494000Y103780000D01*
X143292807Y103333600D02*
G75*
G03*
X144794000Y105690000I-1098807J2356400D01*
G01*
X141071955Y108012631D02*
G75*
G03*
X140494000Y107630000I1122045J-2322631D01*
G01*
X143292807Y108046400D02*
G75*
G02*
X144794000Y105690000I-1098807J-2356400D01*
G01*
X141081736Y103387617D02*
G75*
G02*
X140494000Y103780000I1112264J2302383D01*
G01*
%TO.C,Q8*%
X135160000Y107630000D02*
X135160000Y103780000D01*
X137958807Y103333600D02*
G75*
G03*
X139460000Y105690000I-1098807J2356400D01*
G01*
X135737955Y108012631D02*
G75*
G03*
X135160000Y107630000I1122045J-2322631D01*
G01*
X137958807Y108046400D02*
G75*
G02*
X139460000Y105690000I-1098807J-2356400D01*
G01*
X135747736Y103387617D02*
G75*
G02*
X135160000Y103780000I1112264J2302383D01*
G01*
%TO.C,Q7*%
X129826000Y107630000D02*
X129826000Y103780000D01*
X132624807Y103333600D02*
G75*
G03*
X134126000Y105690000I-1098807J2356400D01*
G01*
X130403955Y108012631D02*
G75*
G03*
X129826000Y107630000I1122045J-2322631D01*
G01*
X132624807Y108046400D02*
G75*
G02*
X134126000Y105690000I-1098807J-2356400D01*
G01*
X130413736Y103387617D02*
G75*
G02*
X129826000Y103780000I1112264J2302383D01*
G01*
%TO.C,Q10*%
X133226000Y88256000D02*
X133226000Y92106000D01*
X130427193Y92552400D02*
G75*
G03*
X128926000Y90196000I1098807J-2356400D01*
G01*
X132648045Y87873369D02*
G75*
G03*
X133226000Y88256000I-1122045J2322631D01*
G01*
X130427193Y87839600D02*
G75*
G02*
X128926000Y90196000I1098807J2356400D01*
G01*
X132638264Y92498383D02*
G75*
G02*
X133226000Y92106000I-1112264J-2302383D01*
G01*
%TO.C,Q5*%
X138763000Y123081200D02*
X138763000Y126931200D01*
X135964193Y127377600D02*
G75*
G03*
X134463000Y125021200I1098807J-2356400D01*
G01*
X138185045Y122698569D02*
G75*
G03*
X138763000Y123081200I-1122045J2322631D01*
G01*
X135964193Y122664800D02*
G75*
G02*
X134463000Y125021200I1098807J2356400D01*
G01*
X138175264Y127323583D02*
G75*
G02*
X138763000Y126931200I-1112264J-2302383D01*
G01*
%TO.C,Q6*%
X144097000Y123081200D02*
X144097000Y126931200D01*
X141298193Y127377600D02*
G75*
G03*
X139797000Y125021200I1098807J-2356400D01*
G01*
X143519045Y122698569D02*
G75*
G03*
X144097000Y123081200I-1122045J2322631D01*
G01*
X141298193Y122664800D02*
G75*
G02*
X139797000Y125021200I1098807J2356400D01*
G01*
X143509264Y127323583D02*
G75*
G02*
X144097000Y126931200I-1112264J-2302383D01*
G01*
%TO.C,Q3*%
X140215000Y142635800D02*
X140215000Y138785800D01*
X143013807Y138339400D02*
G75*
G03*
X144515000Y140695800I-1098807J2356400D01*
G01*
X140792955Y143018431D02*
G75*
G03*
X140215000Y142635800I1122045J-2322631D01*
G01*
X143013807Y143052200D02*
G75*
G02*
X144515000Y140695800I-1098807J-2356400D01*
G01*
X140802736Y138393417D02*
G75*
G02*
X140215000Y138785800I1112264J2302383D01*
G01*
%TO.C,Q2*%
X134881000Y142635800D02*
X134881000Y138785800D01*
X137679807Y138339400D02*
G75*
G03*
X139181000Y140695800I-1098807J2356400D01*
G01*
X135458955Y143018431D02*
G75*
G03*
X134881000Y142635800I1122045J-2322631D01*
G01*
X137679807Y143052200D02*
G75*
G02*
X139181000Y140695800I-1098807J-2356400D01*
G01*
X135468736Y138393417D02*
G75*
G02*
X134881000Y138785800I1112264J2302383D01*
G01*
%TO.C,Q1*%
X129547000Y142635800D02*
X129547000Y138785800D01*
X132345807Y138339400D02*
G75*
G03*
X133847000Y140695800I-1098807J2356400D01*
G01*
X130124955Y143018431D02*
G75*
G03*
X129547000Y142635800I1122045J-2322631D01*
G01*
X132345807Y143052200D02*
G75*
G02*
X133847000Y140695800I-1098807J-2356400D01*
G01*
X130134736Y138393417D02*
G75*
G02*
X129547000Y138785800I1112264J2302383D01*
G01*
%TO.C,Q4*%
X133429000Y123081200D02*
X133429000Y126931200D01*
X130630193Y127377600D02*
G75*
G03*
X129129000Y125021200I1098807J-2356400D01*
G01*
X132851045Y122698569D02*
G75*
G03*
X133429000Y123081200I-1122045J2322631D01*
G01*
X130630193Y122664800D02*
G75*
G02*
X129129000Y125021200I1098807J2356400D01*
G01*
X132841264Y127323583D02*
G75*
G02*
X133429000Y126931200I-1112264J-2302383D01*
G01*
%TO.C,C1*%
X181310000Y118874000D02*
X181310000Y118184000D01*
X182730000Y118184000D02*
X179890000Y118184000D01*
X182730000Y114144000D02*
X182730000Y118184000D01*
X179890000Y114144000D02*
X182730000Y114144000D01*
X181310000Y113454000D02*
X181310000Y114144000D01*
X179890000Y118184000D02*
X179890000Y114144000D01*
%TO.C,C2*%
X210012000Y119128000D02*
X210012000Y118438000D01*
X211432000Y118438000D02*
X208592000Y118438000D01*
X211432000Y114398000D02*
X211432000Y118438000D01*
X208592000Y114398000D02*
X211432000Y114398000D01*
X210012000Y113708000D02*
X210012000Y114398000D01*
X208592000Y118438000D02*
X208592000Y114398000D01*
%TO.C,D21*%
X101754000Y134554000D02*
X98814000Y134554000D01*
X101754000Y134314000D02*
X98814000Y134314000D01*
X101754000Y134434000D02*
X98814000Y134434000D01*
X100284000Y128874000D02*
X100284000Y129894000D01*
X100284000Y136354000D02*
X100284000Y135334000D01*
X101754000Y129894000D02*
X101754000Y135334000D01*
X98814000Y129894000D02*
X101754000Y129894000D01*
X98814000Y135334000D02*
X98814000Y129894000D01*
X101754000Y135334000D02*
X98814000Y135334000D01*
%TO.C,D22*%
X101627000Y100010000D02*
X98687000Y100010000D01*
X101627000Y99770000D02*
X98687000Y99770000D01*
X101627000Y99890000D02*
X98687000Y99890000D01*
X100157000Y94330000D02*
X100157000Y95350000D01*
X100157000Y101810000D02*
X100157000Y100790000D01*
X101627000Y95350000D02*
X101627000Y100790000D01*
X98687000Y95350000D02*
X101627000Y95350000D01*
X98687000Y100790000D02*
X98687000Y95350000D01*
X101627000Y100790000D02*
X98687000Y100790000D01*
%TO.C,D23*%
X101881000Y63942000D02*
X98941000Y63942000D01*
X101881000Y63702000D02*
X98941000Y63702000D01*
X101881000Y63822000D02*
X98941000Y63822000D01*
X100411000Y58262000D02*
X100411000Y59282000D01*
X100411000Y65742000D02*
X100411000Y64722000D01*
X101881000Y59282000D02*
X101881000Y64722000D01*
X98941000Y59282000D02*
X101881000Y59282000D01*
X98941000Y64722000D02*
X98941000Y59282000D01*
X101881000Y64722000D02*
X98941000Y64722000D01*
%TO.C,D41*%
X97436000Y134554000D02*
X94496000Y134554000D01*
X97436000Y134314000D02*
X94496000Y134314000D01*
X97436000Y134434000D02*
X94496000Y134434000D01*
X95966000Y128874000D02*
X95966000Y129894000D01*
X95966000Y136354000D02*
X95966000Y135334000D01*
X97436000Y129894000D02*
X97436000Y135334000D01*
X94496000Y129894000D02*
X97436000Y129894000D01*
X94496000Y135334000D02*
X94496000Y129894000D01*
X97436000Y135334000D02*
X94496000Y135334000D01*
%TO.C,D42*%
X97182000Y100010000D02*
X94242000Y100010000D01*
X97182000Y99770000D02*
X94242000Y99770000D01*
X97182000Y99890000D02*
X94242000Y99890000D01*
X95712000Y94330000D02*
X95712000Y95350000D01*
X95712000Y101810000D02*
X95712000Y100790000D01*
X97182000Y95350000D02*
X97182000Y100790000D01*
X94242000Y95350000D02*
X97182000Y95350000D01*
X94242000Y100790000D02*
X94242000Y95350000D01*
X97182000Y100790000D02*
X94242000Y100790000D01*
%TO.C,D43*%
X97055000Y63942000D02*
X94115000Y63942000D01*
X97055000Y63702000D02*
X94115000Y63702000D01*
X97055000Y63822000D02*
X94115000Y63822000D01*
X95585000Y58262000D02*
X95585000Y59282000D01*
X95585000Y65742000D02*
X95585000Y64722000D01*
X97055000Y59282000D02*
X97055000Y64722000D01*
X94115000Y59282000D02*
X97055000Y59282000D01*
X94115000Y64722000D02*
X94115000Y59282000D01*
X97055000Y64722000D02*
X94115000Y64722000D01*
%TO.C,DA1*%
X150884000Y8754000D02*
X153824000Y8754000D01*
X150884000Y8994000D02*
X153824000Y8994000D01*
X150884000Y8874000D02*
X153824000Y8874000D01*
X152354000Y14434000D02*
X152354000Y13414000D01*
X152354000Y6954000D02*
X152354000Y7974000D01*
X150884000Y13414000D02*
X150884000Y7974000D01*
X153824000Y13414000D02*
X150884000Y13414000D01*
X153824000Y7974000D02*
X153824000Y13414000D01*
X150884000Y7974000D02*
X153824000Y7974000D01*
%TO.C,DC1*%
X89562000Y27366000D02*
X86622000Y27366000D01*
X89562000Y27126000D02*
X86622000Y27126000D01*
X89562000Y27246000D02*
X86622000Y27246000D01*
X88092000Y21686000D02*
X88092000Y22706000D01*
X88092000Y29166000D02*
X88092000Y28146000D01*
X89562000Y22706000D02*
X89562000Y28146000D01*
X86622000Y22706000D02*
X89562000Y22706000D01*
X86622000Y28146000D02*
X86622000Y22706000D01*
X89562000Y28146000D02*
X86622000Y28146000D01*
%TO.C,DS1*%
X189638000Y12380000D02*
X186698000Y12380000D01*
X189638000Y12140000D02*
X186698000Y12140000D01*
X189638000Y12260000D02*
X186698000Y12260000D01*
X188168000Y6700000D02*
X188168000Y7720000D01*
X188168000Y14180000D02*
X188168000Y13160000D01*
X189638000Y7720000D02*
X189638000Y13160000D01*
X186698000Y7720000D02*
X189638000Y7720000D01*
X186698000Y13160000D02*
X186698000Y7720000D01*
X189638000Y13160000D02*
X186698000Y13160000D01*
%TO.C,JA1*%
X201630000Y28474000D02*
X201630000Y25934000D01*
X201630000Y25934000D02*
X204300000Y25934000D01*
X204300000Y28474000D02*
X204300000Y66704000D01*
X204300000Y23264000D02*
X204300000Y25934000D01*
X188930000Y25934000D02*
X186260000Y25934000D01*
X188930000Y25934000D02*
X188930000Y64034000D01*
X188930000Y64034000D02*
X186260000Y64034000D01*
X201630000Y28474000D02*
X204300000Y28474000D01*
X201630000Y28474000D02*
X201630000Y64034000D01*
X201630000Y64034000D02*
X204300000Y64034000D01*
X204300000Y66704000D02*
X186260000Y66704000D01*
X186260000Y66704000D02*
X186260000Y23264000D01*
X186260000Y23264000D02*
X204300000Y23264000D01*
%TO.C,JE1*%
X154834000Y154264000D02*
X154834000Y151604000D01*
X192994000Y154264000D02*
X154834000Y154264000D01*
X192994000Y151604000D02*
X154834000Y151604000D01*
X192994000Y154264000D02*
X192994000Y151604000D01*
X194264000Y154264000D02*
X195594000Y154264000D01*
X195594000Y154264000D02*
X195594000Y152934000D01*
%TO.C,JEX1*%
X205694000Y15520000D02*
X210774000Y15520000D01*
X210774000Y15520000D02*
X213314000Y15520000D01*
X205694000Y15520000D02*
X204644000Y15520000D01*
X204614000Y5360000D02*
X204614000Y15520000D01*
X226014000Y18060000D02*
X226014000Y7900000D01*
X204614000Y5360000D02*
X213314000Y5360000D01*
X213314000Y15520000D02*
X213724000Y15520000D01*
X213724000Y15520000D02*
X213724000Y18060000D01*
X213724000Y7900000D02*
X213724000Y5360000D01*
X213724000Y5360000D02*
X213314000Y5360000D01*
X226014000Y18060000D02*
X213724000Y18060000D01*
X226014000Y7900000D02*
X213724000Y7900000D01*
%TO.C,JM1*%
X173182000Y85370000D02*
X170642000Y85370000D01*
X170642000Y85370000D02*
X170642000Y82700000D01*
X173182000Y82700000D02*
X211412000Y82700000D01*
X167972000Y82700000D02*
X170642000Y82700000D01*
X170642000Y98070000D02*
X170642000Y100740000D01*
X170642000Y98070000D02*
X208742000Y98070000D01*
X208742000Y98070000D02*
X208742000Y100740000D01*
X173182000Y85370000D02*
X173182000Y82700000D01*
X173182000Y85370000D02*
X208742000Y85370000D01*
X208742000Y85370000D02*
X208742000Y82700000D01*
X211412000Y82700000D02*
X211412000Y100740000D01*
X211412000Y100740000D02*
X167972000Y100740000D01*
X167972000Y100740000D02*
X167972000Y82700000D01*
%TO.C,K21*%
X122570000Y127676000D02*
X102570000Y127676000D01*
X122570000Y137676000D02*
X122570000Y127676000D01*
X102570000Y137676000D02*
X122570000Y137676000D01*
X102570000Y127676000D02*
X102570000Y137676000D01*
%TO.C,K22*%
X122824000Y92816000D02*
X102824000Y92816000D01*
X122824000Y102816000D02*
X122824000Y92816000D01*
X102824000Y102816000D02*
X122824000Y102816000D01*
X102824000Y92816000D02*
X102824000Y102816000D01*
%TO.C,K23*%
X123078000Y56748000D02*
X103078000Y56748000D01*
X123078000Y66748000D02*
X123078000Y56748000D01*
X103078000Y66748000D02*
X123078000Y66748000D01*
X103078000Y56748000D02*
X103078000Y66748000D01*
%TO.C,KA1*%
X127274000Y15948000D02*
X147274000Y15948000D01*
X127274000Y5948000D02*
X127274000Y15948000D01*
X147274000Y5948000D02*
X127274000Y5948000D01*
X147274000Y15948000D02*
X147274000Y5948000D01*
%TO.C,Ki1*%
X115712000Y20680000D02*
X95712000Y20680000D01*
X115712000Y30680000D02*
X115712000Y20680000D01*
X95712000Y30680000D02*
X115712000Y30680000D01*
X95712000Y20680000D02*
X95712000Y30680000D01*
%TO.C,KS1*%
X163342000Y15948000D02*
X183342000Y15948000D01*
X163342000Y5948000D02*
X163342000Y15948000D01*
X183342000Y5948000D02*
X163342000Y5948000D01*
X183342000Y15948000D02*
X183342000Y5948000D01*
%TO.C,R1*%
X156545000Y136424000D02*
X155910000Y136424000D01*
X150195000Y136424000D02*
X150830000Y136424000D01*
X150830000Y136424000D02*
X150195000Y136424000D01*
X155910000Y135154000D02*
X150830000Y135154000D01*
X150830000Y135154000D02*
X155910000Y135154000D01*
X150830000Y137694000D02*
X150830000Y135154000D01*
X155910000Y137694000D02*
X150830000Y137694000D01*
X155910000Y135154000D02*
X155910000Y137694000D01*
%TO.C,R2*%
X156545000Y144044000D02*
X155910000Y144044000D01*
X150195000Y144044000D02*
X150830000Y144044000D01*
X150830000Y144044000D02*
X150195000Y144044000D01*
X155910000Y142774000D02*
X150830000Y142774000D01*
X150830000Y142774000D02*
X155910000Y142774000D01*
X150830000Y145314000D02*
X150830000Y142774000D01*
X155910000Y145314000D02*
X150830000Y145314000D01*
X155910000Y142774000D02*
X155910000Y145314000D01*
%TO.C,R3*%
X156545000Y140234000D02*
X155910000Y140234000D01*
X150195000Y140234000D02*
X150830000Y140234000D01*
X150830000Y140234000D02*
X150195000Y140234000D01*
X155910000Y138964000D02*
X150830000Y138964000D01*
X150830000Y138964000D02*
X155910000Y138964000D01*
X150830000Y141504000D02*
X150830000Y138964000D01*
X155910000Y141504000D02*
X150830000Y141504000D01*
X155910000Y138964000D02*
X155910000Y141504000D01*
%TO.C,R4*%
X156545000Y121184000D02*
X155910000Y121184000D01*
X150195000Y121184000D02*
X150830000Y121184000D01*
X150830000Y121184000D02*
X150195000Y121184000D01*
X155910000Y119914000D02*
X150830000Y119914000D01*
X150830000Y119914000D02*
X155910000Y119914000D01*
X150830000Y122454000D02*
X150830000Y119914000D01*
X155910000Y122454000D02*
X150830000Y122454000D01*
X155910000Y119914000D02*
X155910000Y122454000D01*
%TO.C,R5*%
X156545000Y128804000D02*
X155910000Y128804000D01*
X150195000Y128804000D02*
X150830000Y128804000D01*
X150830000Y128804000D02*
X150195000Y128804000D01*
X155910000Y127534000D02*
X150830000Y127534000D01*
X150830000Y127534000D02*
X155910000Y127534000D01*
X150830000Y130074000D02*
X150830000Y127534000D01*
X155910000Y130074000D02*
X150830000Y130074000D01*
X155910000Y127534000D02*
X155910000Y130074000D01*
%TO.C,R6*%
X156545000Y124994000D02*
X155910000Y124994000D01*
X150195000Y124994000D02*
X150830000Y124994000D01*
X150830000Y124994000D02*
X150195000Y124994000D01*
X155910000Y123724000D02*
X150830000Y123724000D01*
X150830000Y123724000D02*
X155910000Y123724000D01*
X150830000Y126264000D02*
X150830000Y123724000D01*
X155910000Y126264000D02*
X150830000Y126264000D01*
X155910000Y123724000D02*
X155910000Y126264000D01*
%TO.C,R7*%
X156545000Y102134000D02*
X155910000Y102134000D01*
X150195000Y102134000D02*
X150830000Y102134000D01*
X150830000Y102134000D02*
X150195000Y102134000D01*
X155910000Y100864000D02*
X150830000Y100864000D01*
X150830000Y100864000D02*
X155910000Y100864000D01*
X150830000Y103404000D02*
X150830000Y100864000D01*
X155910000Y103404000D02*
X150830000Y103404000D01*
X155910000Y100864000D02*
X155910000Y103404000D01*
%TO.C,R8*%
X156545000Y109754000D02*
X155910000Y109754000D01*
X150195000Y109754000D02*
X150830000Y109754000D01*
X150830000Y109754000D02*
X150195000Y109754000D01*
X155910000Y108484000D02*
X150830000Y108484000D01*
X150830000Y108484000D02*
X155910000Y108484000D01*
X150830000Y111024000D02*
X150830000Y108484000D01*
X155910000Y111024000D02*
X150830000Y111024000D01*
X155910000Y108484000D02*
X155910000Y111024000D01*
%TO.C,R9*%
X156545000Y105944000D02*
X155910000Y105944000D01*
X150195000Y105944000D02*
X150830000Y105944000D01*
X150830000Y105944000D02*
X150195000Y105944000D01*
X155910000Y104674000D02*
X150830000Y104674000D01*
X150830000Y104674000D02*
X155910000Y104674000D01*
X150830000Y107214000D02*
X150830000Y104674000D01*
X155910000Y107214000D02*
X150830000Y107214000D01*
X155910000Y104674000D02*
X155910000Y107214000D01*
%TO.C,R10*%
X156545000Y85878000D02*
X155910000Y85878000D01*
X150195000Y85878000D02*
X150830000Y85878000D01*
X150830000Y85878000D02*
X150195000Y85878000D01*
X155910000Y84608000D02*
X150830000Y84608000D01*
X150830000Y84608000D02*
X155910000Y84608000D01*
X150830000Y87148000D02*
X150830000Y84608000D01*
X155910000Y87148000D02*
X150830000Y87148000D01*
X155910000Y84608000D02*
X155910000Y87148000D01*
%TO.C,R11*%
X156545000Y93498000D02*
X155910000Y93498000D01*
X150195000Y93498000D02*
X150830000Y93498000D01*
X150830000Y93498000D02*
X150195000Y93498000D01*
X155910000Y92228000D02*
X150830000Y92228000D01*
X150830000Y92228000D02*
X155910000Y92228000D01*
X150830000Y94768000D02*
X150830000Y92228000D01*
X155910000Y94768000D02*
X150830000Y94768000D01*
X155910000Y92228000D02*
X155910000Y94768000D01*
%TO.C,R12*%
X156545000Y89688000D02*
X155910000Y89688000D01*
X150195000Y89688000D02*
X150830000Y89688000D01*
X150830000Y89688000D02*
X150195000Y89688000D01*
X155910000Y88418000D02*
X150830000Y88418000D01*
X150830000Y88418000D02*
X155910000Y88418000D01*
X150830000Y90958000D02*
X150830000Y88418000D01*
X155910000Y90958000D02*
X150830000Y90958000D01*
X155910000Y88418000D02*
X155910000Y90958000D01*
%TO.C,R13*%
X156799000Y66320000D02*
X156164000Y66320000D01*
X150449000Y66320000D02*
X151084000Y66320000D01*
X151084000Y66320000D02*
X150449000Y66320000D01*
X156164000Y65050000D02*
X151084000Y65050000D01*
X151084000Y65050000D02*
X156164000Y65050000D01*
X151084000Y67590000D02*
X151084000Y65050000D01*
X156164000Y67590000D02*
X151084000Y67590000D01*
X156164000Y65050000D02*
X156164000Y67590000D01*
%TO.C,R14*%
X156799000Y73940000D02*
X156164000Y73940000D01*
X150449000Y73940000D02*
X151084000Y73940000D01*
X151084000Y73940000D02*
X150449000Y73940000D01*
X156164000Y72670000D02*
X151084000Y72670000D01*
X151084000Y72670000D02*
X156164000Y72670000D01*
X151084000Y75210000D02*
X151084000Y72670000D01*
X156164000Y75210000D02*
X151084000Y75210000D01*
X156164000Y72670000D02*
X156164000Y75210000D01*
%TO.C,R15*%
X156799000Y70130000D02*
X156164000Y70130000D01*
X150449000Y70130000D02*
X151084000Y70130000D01*
X151084000Y70130000D02*
X150449000Y70130000D01*
X156164000Y68860000D02*
X151084000Y68860000D01*
X151084000Y68860000D02*
X156164000Y68860000D01*
X151084000Y71400000D02*
X151084000Y68860000D01*
X156164000Y71400000D02*
X151084000Y71400000D01*
X156164000Y68860000D02*
X156164000Y71400000D01*
%TO.C,R16*%
X157053000Y50318000D02*
X156418000Y50318000D01*
X150703000Y50318000D02*
X151338000Y50318000D01*
X151338000Y50318000D02*
X150703000Y50318000D01*
X156418000Y49048000D02*
X151338000Y49048000D01*
X151338000Y49048000D02*
X156418000Y49048000D01*
X151338000Y51588000D02*
X151338000Y49048000D01*
X156418000Y51588000D02*
X151338000Y51588000D01*
X156418000Y49048000D02*
X156418000Y51588000D01*
%TO.C,R17*%
X157053000Y57938000D02*
X156418000Y57938000D01*
X150703000Y57938000D02*
X151338000Y57938000D01*
X151338000Y57938000D02*
X150703000Y57938000D01*
X156418000Y56668000D02*
X151338000Y56668000D01*
X151338000Y56668000D02*
X156418000Y56668000D01*
X151338000Y59208000D02*
X151338000Y56668000D01*
X156418000Y59208000D02*
X151338000Y59208000D01*
X156418000Y56668000D02*
X156418000Y59208000D01*
%TO.C,R18*%
X157053000Y54128000D02*
X156418000Y54128000D01*
X150703000Y54128000D02*
X151338000Y54128000D01*
X151338000Y54128000D02*
X150703000Y54128000D01*
X156418000Y52858000D02*
X151338000Y52858000D01*
X151338000Y52858000D02*
X156418000Y52858000D01*
X151338000Y55398000D02*
X151338000Y52858000D01*
X156418000Y55398000D02*
X151338000Y55398000D01*
X156418000Y52858000D02*
X156418000Y55398000D01*
%TO.C,R19*%
X157053000Y46254000D02*
X156418000Y46254000D01*
X150703000Y46254000D02*
X151338000Y46254000D01*
X151338000Y46254000D02*
X150703000Y46254000D01*
X156418000Y44984000D02*
X151338000Y44984000D01*
X151338000Y44984000D02*
X156418000Y44984000D01*
X151338000Y47524000D02*
X151338000Y44984000D01*
X156418000Y47524000D02*
X151338000Y47524000D01*
X156418000Y44984000D02*
X156418000Y47524000D01*
%TO.C,R22*%
X163657000Y148362000D02*
X163657000Y147727000D01*
X163657000Y142012000D02*
X163657000Y142647000D01*
X163657000Y142647000D02*
X163657000Y142012000D01*
X164927000Y147727000D02*
X164927000Y142647000D01*
X164927000Y142647000D02*
X164927000Y147727000D01*
X162387000Y142647000D02*
X164927000Y142647000D01*
X162387000Y147727000D02*
X162387000Y142647000D01*
X164927000Y147727000D02*
X162387000Y147727000D01*
%TO.C,R23*%
X203789000Y149632000D02*
X204424000Y149632000D01*
X210139000Y149632000D02*
X209504000Y149632000D01*
X209504000Y149632000D02*
X210139000Y149632000D01*
X204424000Y150902000D02*
X209504000Y150902000D01*
X209504000Y150902000D02*
X204424000Y150902000D01*
X209504000Y148362000D02*
X209504000Y150902000D01*
X204424000Y148362000D02*
X209504000Y148362000D01*
X204424000Y150902000D02*
X204424000Y148362000D01*
%TO.C,Rb1*%
X181945000Y108992000D02*
X182580000Y108992000D01*
X188295000Y108992000D02*
X187660000Y108992000D01*
X187660000Y108992000D02*
X188295000Y108992000D01*
X182580000Y110262000D02*
X187660000Y110262000D01*
X187660000Y110262000D02*
X182580000Y110262000D01*
X187660000Y107722000D02*
X187660000Y110262000D01*
X182580000Y107722000D02*
X187660000Y107722000D01*
X182580000Y110262000D02*
X182580000Y107722000D01*
%TO.C,Rb2*%
X209377000Y108992000D02*
X208742000Y108992000D01*
X203027000Y108992000D02*
X203662000Y108992000D01*
X203662000Y108992000D02*
X203027000Y108992000D01*
X208742000Y107722000D02*
X203662000Y107722000D01*
X203662000Y107722000D02*
X208742000Y107722000D01*
X203662000Y110262000D02*
X203662000Y107722000D01*
X208742000Y110262000D02*
X203662000Y110262000D01*
X208742000Y107722000D02*
X208742000Y110262000D01*
%TO.C,RC1*%
X157053000Y42190000D02*
X156418000Y42190000D01*
X150703000Y42190000D02*
X151338000Y42190000D01*
X151338000Y42190000D02*
X150703000Y42190000D01*
X156418000Y40920000D02*
X151338000Y40920000D01*
X151338000Y40920000D02*
X156418000Y40920000D01*
X151338000Y43460000D02*
X151338000Y40920000D01*
X156418000Y43460000D02*
X151338000Y43460000D01*
X156418000Y40920000D02*
X156418000Y43460000D01*
%TO.C,SW1*%
X192505000Y116914000D02*
X192505000Y118414000D01*
X191255000Y120914000D02*
X186755000Y120914000D01*
X185505000Y118414000D02*
X185505000Y116914000D01*
X186755000Y114414000D02*
X191255000Y114414000D01*
%TO.C,SW2*%
X205586000Y116914000D02*
X205586000Y118414000D01*
X204336000Y120914000D02*
X199836000Y120914000D01*
X198586000Y118414000D02*
X198586000Y116914000D01*
X199836000Y114414000D02*
X204336000Y114414000D01*
%TO.C,JLed1*%
X226201000Y41114000D02*
X224871000Y41114000D01*
X226201000Y42444000D02*
X226201000Y41114000D01*
X226201000Y43714000D02*
X223541000Y43714000D01*
X223541000Y43714000D02*
X223541000Y48854000D01*
X226201000Y43714000D02*
X226201000Y48854000D01*
X226201000Y48854000D02*
X223541000Y48854000D01*
%TO.C,J1*%
D11*
X27626666Y131103620D02*
X27626666Y130389334D01*
X27579047Y130246477D01*
X27483809Y130151239D01*
X27340952Y130103620D01*
X27245714Y130103620D01*
X28626666Y130103620D02*
X28055238Y130103620D01*
X28340952Y130103620D02*
X28340952Y131103620D01*
X28245714Y130960762D01*
X28150476Y130865524D01*
X28055238Y130817905D01*
%TO.C,J2*%
X27372666Y96497620D02*
X27372666Y95783334D01*
X27325047Y95640477D01*
X27229809Y95545239D01*
X27086952Y95497620D01*
X26991714Y95497620D01*
X27801238Y96402381D02*
X27848857Y96450000D01*
X27944095Y96497620D01*
X28182190Y96497620D01*
X28277428Y96450000D01*
X28325047Y96402381D01*
X28372666Y96307143D01*
X28372666Y96211905D01*
X28325047Y96069048D01*
X27753619Y95497620D01*
X28372666Y95497620D01*
%TO.C,J3*%
X27118666Y61191620D02*
X27118666Y60477334D01*
X27071047Y60334477D01*
X26975809Y60239239D01*
X26832952Y60191620D01*
X26737714Y60191620D01*
X27499619Y61191620D02*
X28118666Y61191620D01*
X27785333Y60810667D01*
X27928190Y60810667D01*
X28023428Y60763048D01*
X28071047Y60715429D01*
X28118666Y60620191D01*
X28118666Y60382096D01*
X28071047Y60286858D01*
X28023428Y60239239D01*
X27928190Y60191620D01*
X27642476Y60191620D01*
X27547238Y60239239D01*
X27499619Y60286858D01*
%TO.C,JC1*%
X27126666Y14455620D02*
X27126666Y13741334D01*
X27079047Y13598477D01*
X26983809Y13503239D01*
X26840952Y13455620D01*
X26745714Y13455620D01*
X28174285Y13550858D02*
X28126666Y13503239D01*
X27983809Y13455620D01*
X27888571Y13455620D01*
X27745714Y13503239D01*
X27650476Y13598477D01*
X27602857Y13693715D01*
X27555238Y13884191D01*
X27555238Y14027048D01*
X27602857Y14217524D01*
X27650476Y14312762D01*
X27745714Y14408000D01*
X27888571Y14455620D01*
X27983809Y14455620D01*
X28126666Y14408000D01*
X28174285Y14360381D01*
X29126666Y13455620D02*
X28555238Y13455620D01*
X28840952Y13455620D02*
X28840952Y14455620D01*
X28745714Y14312762D01*
X28650476Y14217524D01*
X28555238Y14169905D01*
%TO.C,JCI1*%
X26888571Y24615620D02*
X26888571Y23901334D01*
X26840952Y23758477D01*
X26745714Y23663239D01*
X26602857Y23615620D01*
X26507619Y23615620D01*
X27936190Y23710858D02*
X27888571Y23663239D01*
X27745714Y23615620D01*
X27650476Y23615620D01*
X27507619Y23663239D01*
X27412380Y23758477D01*
X27364761Y23853715D01*
X27317142Y24044191D01*
X27317142Y24187048D01*
X27364761Y24377524D01*
X27412380Y24472762D01*
X27507619Y24568000D01*
X27650476Y24615620D01*
X27745714Y24615620D01*
X27888571Y24568000D01*
X27936190Y24520381D01*
X28364761Y23615620D02*
X28364761Y24615620D01*
X29364761Y23615620D02*
X28793333Y23615620D01*
X29079047Y23615620D02*
X29079047Y24615620D01*
X28983809Y24472762D01*
X28888571Y24377524D01*
X28793333Y24329905D01*
%TO.C,K41*%
X90576380Y131461715D02*
X89576380Y131461715D01*
X90576380Y132033143D02*
X90004952Y131604572D01*
X89576380Y132033143D02*
X90147809Y131461715D01*
X89909714Y132890286D02*
X90576380Y132890286D01*
X89528761Y132652191D02*
X90243047Y132414096D01*
X90243047Y133033143D01*
X90576380Y133937905D02*
X90576380Y133366477D01*
X90576380Y133652191D02*
X89576380Y133652191D01*
X89719238Y133556953D01*
X89814476Y133461715D01*
X89862095Y133366477D01*
%TO.C,K42*%
X90322380Y96855715D02*
X89322380Y96855715D01*
X90322380Y97427143D02*
X89750952Y96998572D01*
X89322380Y97427143D02*
X89893809Y96855715D01*
X89655714Y98284286D02*
X90322380Y98284286D01*
X89274761Y98046191D02*
X89989047Y97808096D01*
X89989047Y98427143D01*
X89417619Y98760477D02*
X89370000Y98808096D01*
X89322380Y98903334D01*
X89322380Y99141429D01*
X89370000Y99236667D01*
X89417619Y99284286D01*
X89512857Y99331905D01*
X89608095Y99331905D01*
X89750952Y99284286D01*
X90322380Y98712858D01*
X90322380Y99331905D01*
%TO.C,K43*%
X90068380Y60533715D02*
X89068380Y60533715D01*
X90068380Y61105143D02*
X89496952Y60676572D01*
X89068380Y61105143D02*
X89639809Y60533715D01*
X89401714Y61962286D02*
X90068380Y61962286D01*
X89020761Y61724191D02*
X89735047Y61486096D01*
X89735047Y62105143D01*
X89068380Y62390858D02*
X89068380Y63009905D01*
X89449333Y62676572D01*
X89449333Y62819429D01*
X89496952Y62914667D01*
X89544571Y62962286D01*
X89639809Y63009905D01*
X89877904Y63009905D01*
X89973142Y62962286D01*
X90020761Y62914667D01*
X90068380Y62819429D01*
X90068380Y62533715D01*
X90020761Y62438477D01*
X89973142Y62390858D01*
%TO.C,KC1*%
X82702380Y24187905D02*
X81702380Y24187905D01*
X82702380Y24759334D02*
X82130952Y24330762D01*
X81702380Y24759334D02*
X82273809Y24187905D01*
X82607142Y25759334D02*
X82654761Y25711715D01*
X82702380Y25568858D01*
X82702380Y25473620D01*
X82654761Y25330762D01*
X82559523Y25235524D01*
X82464285Y25187905D01*
X82273809Y25140286D01*
X82130952Y25140286D01*
X81940476Y25187905D01*
X81845238Y25235524D01*
X81750000Y25330762D01*
X81702380Y25473620D01*
X81702380Y25568858D01*
X81750000Y25711715D01*
X81797619Y25759334D01*
X82702380Y26711715D02*
X82702380Y26140286D01*
X82702380Y26426000D02*
X81702380Y26426000D01*
X81845238Y26330762D01*
X81940476Y26235524D01*
X81988095Y26140286D01*
%TO.C,DI1*%
X96221380Y24449810D02*
X95221380Y24449810D01*
X95221380Y24687905D01*
X95269000Y24830762D01*
X95364238Y24926000D01*
X95459476Y24973620D01*
X95649952Y25021239D01*
X95792809Y25021239D01*
X95983285Y24973620D01*
X96078523Y24926000D01*
X96173761Y24830762D01*
X96221380Y24687905D01*
X96221380Y24449810D01*
X96221380Y25449810D02*
X95221380Y25449810D01*
X96221380Y26449810D02*
X96221380Y25878381D01*
X96221380Y26164096D02*
X95221380Y26164096D01*
X95364238Y26068858D01*
X95459476Y25973620D01*
X95507095Y25878381D01*
%TO.C,JUSB1*%
X223164666Y21865620D02*
X223164666Y21151334D01*
X223117047Y21008477D01*
X223021809Y20913239D01*
X222878952Y20865620D01*
X222783714Y20865620D01*
X223640857Y21865620D02*
X223640857Y21056096D01*
X223688476Y20960858D01*
X223736095Y20913239D01*
X223831333Y20865620D01*
X224021809Y20865620D01*
X224117047Y20913239D01*
X224164666Y20960858D01*
X224212285Y21056096D01*
X224212285Y21865620D01*
X224640857Y20913239D02*
X224783714Y20865620D01*
X225021809Y20865620D01*
X225117047Y20913239D01*
X225164666Y20960858D01*
X225212285Y21056096D01*
X225212285Y21151334D01*
X225164666Y21246572D01*
X225117047Y21294191D01*
X225021809Y21341810D01*
X224831333Y21389429D01*
X224736095Y21437048D01*
X224688476Y21484667D01*
X224640857Y21579905D01*
X224640857Y21675143D01*
X224688476Y21770381D01*
X224736095Y21818000D01*
X224831333Y21865620D01*
X225069428Y21865620D01*
X225212285Y21818000D01*
X225974190Y21389429D02*
X226117047Y21341810D01*
X226164666Y21294191D01*
X226212285Y21198953D01*
X226212285Y21056096D01*
X226164666Y20960858D01*
X226117047Y20913239D01*
X226021809Y20865620D01*
X225640857Y20865620D01*
X225640857Y21865620D01*
X225974190Y21865620D01*
X226069428Y21818000D01*
X226117047Y21770381D01*
X226164666Y21675143D01*
X226164666Y21579905D01*
X226117047Y21484667D01*
X226069428Y21437048D01*
X225974190Y21389429D01*
X225640857Y21389429D01*
X227164666Y20865620D02*
X226593238Y20865620D01*
X226878952Y20865620D02*
X226878952Y21865620D01*
X226783714Y21722762D01*
X226688476Y21627524D01*
X226593238Y21579905D01*
%TO.C,Q16*%
X135971883Y53318955D02*
X135924264Y53223717D01*
X135829025Y53128479D01*
X135686168Y52985622D01*
X135638549Y52890383D01*
X135638549Y52795145D01*
X135876644Y52842764D02*
X135829025Y52747526D01*
X135733787Y52652288D01*
X135543311Y52604669D01*
X135209978Y52604669D01*
X135019502Y52652288D01*
X134924264Y52747526D01*
X134876644Y52842764D01*
X134876644Y53033241D01*
X134924264Y53128479D01*
X135019502Y53223717D01*
X135209978Y53271336D01*
X135543311Y53271336D01*
X135733787Y53223717D01*
X135829025Y53128479D01*
X135876644Y53033241D01*
X135876644Y52842764D01*
X135876644Y54223717D02*
X135876644Y53652288D01*
X135876644Y53938003D02*
X134876644Y53938003D01*
X135019502Y53842764D01*
X135114740Y53747526D01*
X135162359Y53652288D01*
X134876644Y55080860D02*
X134876644Y54890383D01*
X134924264Y54795145D01*
X134971883Y54747526D01*
X135114740Y54652288D01*
X135305216Y54604669D01*
X135686168Y54604669D01*
X135781406Y54652288D01*
X135829025Y54699907D01*
X135876644Y54795145D01*
X135876644Y54985622D01*
X135829025Y55080860D01*
X135781406Y55128479D01*
X135686168Y55176098D01*
X135448073Y55176098D01*
X135352835Y55128479D01*
X135305216Y55080860D01*
X135257597Y54985622D01*
X135257597Y54795145D01*
X135305216Y54699907D01*
X135352835Y54652288D01*
X135448073Y54604669D01*
%TO.C,Q19*%
X132986571Y35546381D02*
X132891333Y35594000D01*
X132796095Y35689239D01*
X132653238Y35832096D01*
X132558000Y35879715D01*
X132462761Y35879715D01*
X132510380Y35641620D02*
X132415142Y35689239D01*
X132319904Y35784477D01*
X132272285Y35974953D01*
X132272285Y36308286D01*
X132319904Y36498762D01*
X132415142Y36594000D01*
X132510380Y36641620D01*
X132700857Y36641620D01*
X132796095Y36594000D01*
X132891333Y36498762D01*
X132938952Y36308286D01*
X132938952Y35974953D01*
X132891333Y35784477D01*
X132796095Y35689239D01*
X132700857Y35641620D01*
X132510380Y35641620D01*
X133891333Y35641620D02*
X133319904Y35641620D01*
X133605619Y35641620D02*
X133605619Y36641620D01*
X133510380Y36498762D01*
X133415142Y36403524D01*
X133319904Y36355905D01*
X134367523Y35641620D02*
X134558000Y35641620D01*
X134653238Y35689239D01*
X134700857Y35736858D01*
X134796095Y35879715D01*
X134843714Y36070191D01*
X134843714Y36451143D01*
X134796095Y36546381D01*
X134748476Y36594000D01*
X134653238Y36641620D01*
X134462761Y36641620D01*
X134367523Y36594000D01*
X134319904Y36546381D01*
X134272285Y36451143D01*
X134272285Y36213048D01*
X134319904Y36117810D01*
X134367523Y36070191D01*
X134462761Y36022572D01*
X134653238Y36022572D01*
X134748476Y36070191D01*
X134796095Y36117810D01*
X134843714Y36213048D01*
%TO.C,Q18*%
X146639883Y53318955D02*
X146592264Y53223717D01*
X146497025Y53128479D01*
X146354168Y52985622D01*
X146306549Y52890383D01*
X146306549Y52795145D01*
X146544644Y52842764D02*
X146497025Y52747526D01*
X146401787Y52652288D01*
X146211311Y52604669D01*
X145877978Y52604669D01*
X145687502Y52652288D01*
X145592264Y52747526D01*
X145544644Y52842764D01*
X145544644Y53033241D01*
X145592264Y53128479D01*
X145687502Y53223717D01*
X145877978Y53271336D01*
X146211311Y53271336D01*
X146401787Y53223717D01*
X146497025Y53128479D01*
X146544644Y53033241D01*
X146544644Y52842764D01*
X146544644Y54223717D02*
X146544644Y53652288D01*
X146544644Y53938003D02*
X145544644Y53938003D01*
X145687502Y53842764D01*
X145782740Y53747526D01*
X145830359Y53652288D01*
X145973216Y54795145D02*
X145925597Y54699907D01*
X145877978Y54652288D01*
X145782740Y54604669D01*
X145735121Y54604669D01*
X145639883Y54652288D01*
X145592264Y54699907D01*
X145544644Y54795145D01*
X145544644Y54985622D01*
X145592264Y55080860D01*
X145639883Y55128479D01*
X145735121Y55176098D01*
X145782740Y55176098D01*
X145877978Y55128479D01*
X145925597Y55080860D01*
X145973216Y54985622D01*
X145973216Y54795145D01*
X146020835Y54699907D01*
X146068454Y54652288D01*
X146163692Y54604669D01*
X146354168Y54604669D01*
X146449406Y54652288D01*
X146497025Y54699907D01*
X146544644Y54795145D01*
X146544644Y54985622D01*
X146497025Y55080860D01*
X146449406Y55128479D01*
X146354168Y55176098D01*
X146163692Y55176098D01*
X146068454Y55128479D01*
X146020835Y55080860D01*
X145973216Y54985622D01*
%TO.C,Q17*%
X141305883Y53318955D02*
X141258264Y53223717D01*
X141163025Y53128479D01*
X141020168Y52985622D01*
X140972549Y52890383D01*
X140972549Y52795145D01*
X141210644Y52842764D02*
X141163025Y52747526D01*
X141067787Y52652288D01*
X140877311Y52604669D01*
X140543978Y52604669D01*
X140353502Y52652288D01*
X140258264Y52747526D01*
X140210644Y52842764D01*
X140210644Y53033241D01*
X140258264Y53128479D01*
X140353502Y53223717D01*
X140543978Y53271336D01*
X140877311Y53271336D01*
X141067787Y53223717D01*
X141163025Y53128479D01*
X141210644Y53033241D01*
X141210644Y52842764D01*
X141210644Y54223717D02*
X141210644Y53652288D01*
X141210644Y53938003D02*
X140210644Y53938003D01*
X140353502Y53842764D01*
X140448740Y53747526D01*
X140496359Y53652288D01*
X140210644Y54557050D02*
X140210644Y55223717D01*
X141210644Y54795145D01*
%TO.C,Q15*%
X138335355Y69796189D02*
X138287736Y69700951D01*
X138192497Y69605713D01*
X138049640Y69462856D01*
X138002021Y69367617D01*
X138002021Y69272379D01*
X138240116Y69319998D02*
X138192497Y69224760D01*
X138097259Y69129522D01*
X137906783Y69081903D01*
X137573450Y69081903D01*
X137382974Y69129522D01*
X137287736Y69224760D01*
X137240116Y69319998D01*
X137240116Y69510475D01*
X137287736Y69605713D01*
X137382974Y69700951D01*
X137573450Y69748570D01*
X137906783Y69748570D01*
X138097259Y69700951D01*
X138192497Y69605713D01*
X138240116Y69510475D01*
X138240116Y69319998D01*
X138240116Y70700951D02*
X138240116Y70129522D01*
X138240116Y70415237D02*
X137240116Y70415237D01*
X137382974Y70319998D01*
X137478212Y70224760D01*
X137525831Y70129522D01*
X137240116Y71605713D02*
X137240116Y71129522D01*
X137716307Y71081903D01*
X137668688Y71129522D01*
X137621069Y71224760D01*
X137621069Y71462856D01*
X137668688Y71558094D01*
X137716307Y71605713D01*
X137811545Y71653332D01*
X138049640Y71653332D01*
X138144878Y71605713D01*
X138192497Y71558094D01*
X138240116Y71462856D01*
X138240116Y71224760D01*
X138192497Y71129522D01*
X138144878Y71081903D01*
%TO.C,Q14*%
X133001355Y69796189D02*
X132953736Y69700951D01*
X132858497Y69605713D01*
X132715640Y69462856D01*
X132668021Y69367617D01*
X132668021Y69272379D01*
X132906116Y69319998D02*
X132858497Y69224760D01*
X132763259Y69129522D01*
X132572783Y69081903D01*
X132239450Y69081903D01*
X132048974Y69129522D01*
X131953736Y69224760D01*
X131906116Y69319998D01*
X131906116Y69510475D01*
X131953736Y69605713D01*
X132048974Y69700951D01*
X132239450Y69748570D01*
X132572783Y69748570D01*
X132763259Y69700951D01*
X132858497Y69605713D01*
X132906116Y69510475D01*
X132906116Y69319998D01*
X132906116Y70700951D02*
X132906116Y70129522D01*
X132906116Y70415237D02*
X131906116Y70415237D01*
X132048974Y70319998D01*
X132144212Y70224760D01*
X132191831Y70129522D01*
X132239450Y71558094D02*
X132906116Y71558094D01*
X131858497Y71319998D02*
X132572783Y71081903D01*
X132572783Y71700951D01*
%TO.C,Q13*%
X127667355Y69796189D02*
X127619736Y69700951D01*
X127524497Y69605713D01*
X127381640Y69462856D01*
X127334021Y69367617D01*
X127334021Y69272379D01*
X127572116Y69319998D02*
X127524497Y69224760D01*
X127429259Y69129522D01*
X127238783Y69081903D01*
X126905450Y69081903D01*
X126714974Y69129522D01*
X126619736Y69224760D01*
X126572116Y69319998D01*
X126572116Y69510475D01*
X126619736Y69605713D01*
X126714974Y69700951D01*
X126905450Y69748570D01*
X127238783Y69748570D01*
X127429259Y69700951D01*
X127524497Y69605713D01*
X127572116Y69510475D01*
X127572116Y69319998D01*
X127572116Y70700951D02*
X127572116Y70129522D01*
X127572116Y70415237D02*
X126572116Y70415237D01*
X126714974Y70319998D01*
X126810212Y70224760D01*
X126857831Y70129522D01*
X126572116Y71034284D02*
X126572116Y71653332D01*
X126953069Y71319998D01*
X126953069Y71462856D01*
X127000688Y71558094D01*
X127048307Y71605713D01*
X127143545Y71653332D01*
X127381640Y71653332D01*
X127476878Y71605713D01*
X127524497Y71558094D01*
X127572116Y71462856D01*
X127572116Y71177141D01*
X127524497Y71081903D01*
X127476878Y71034284D01*
%TO.C,Q11*%
X141559883Y89386955D02*
X141512264Y89291717D01*
X141417025Y89196479D01*
X141274168Y89053622D01*
X141226549Y88958383D01*
X141226549Y88863145D01*
X141464644Y88910764D02*
X141417025Y88815526D01*
X141321787Y88720288D01*
X141131311Y88672669D01*
X140797978Y88672669D01*
X140607502Y88720288D01*
X140512264Y88815526D01*
X140464644Y88910764D01*
X140464644Y89101241D01*
X140512264Y89196479D01*
X140607502Y89291717D01*
X140797978Y89339336D01*
X141131311Y89339336D01*
X141321787Y89291717D01*
X141417025Y89196479D01*
X141464644Y89101241D01*
X141464644Y88910764D01*
X141464644Y90291717D02*
X141464644Y89720288D01*
X141464644Y90006003D02*
X140464644Y90006003D01*
X140607502Y89910764D01*
X140702740Y89815526D01*
X140750359Y89720288D01*
X141464644Y91244098D02*
X141464644Y90672669D01*
X141464644Y90958383D02*
X140464644Y90958383D01*
X140607502Y90863145D01*
X140702740Y90767907D01*
X140750359Y90672669D01*
%TO.C,Q12*%
X146893883Y89386955D02*
X146846264Y89291717D01*
X146751025Y89196479D01*
X146608168Y89053622D01*
X146560549Y88958383D01*
X146560549Y88863145D01*
X146798644Y88910764D02*
X146751025Y88815526D01*
X146655787Y88720288D01*
X146465311Y88672669D01*
X146131978Y88672669D01*
X145941502Y88720288D01*
X145846264Y88815526D01*
X145798644Y88910764D01*
X145798644Y89101241D01*
X145846264Y89196479D01*
X145941502Y89291717D01*
X146131978Y89339336D01*
X146465311Y89339336D01*
X146655787Y89291717D01*
X146751025Y89196479D01*
X146798644Y89101241D01*
X146798644Y88910764D01*
X146798644Y90291717D02*
X146798644Y89720288D01*
X146798644Y90006003D02*
X145798644Y90006003D01*
X145941502Y89910764D01*
X146036740Y89815526D01*
X146084359Y89720288D01*
X145893883Y90672669D02*
X145846264Y90720288D01*
X145798644Y90815526D01*
X145798644Y91053622D01*
X145846264Y91148860D01*
X145893883Y91196479D01*
X145989121Y91244098D01*
X146084359Y91244098D01*
X146227216Y91196479D01*
X146798644Y90625050D01*
X146798644Y91244098D01*
%TO.C,Q9*%
X138589355Y105832379D02*
X138541736Y105737141D01*
X138446497Y105641903D01*
X138303640Y105499046D01*
X138256021Y105403808D01*
X138256021Y105308570D01*
X138494116Y105356189D02*
X138446497Y105260951D01*
X138351259Y105165713D01*
X138160783Y105118094D01*
X137827450Y105118094D01*
X137636974Y105165713D01*
X137541736Y105260951D01*
X137494116Y105356189D01*
X137494116Y105546665D01*
X137541736Y105641903D01*
X137636974Y105737141D01*
X137827450Y105784760D01*
X138160783Y105784760D01*
X138351259Y105737141D01*
X138446497Y105641903D01*
X138494116Y105546665D01*
X138494116Y105356189D01*
X138494116Y106260951D02*
X138494116Y106451427D01*
X138446497Y106546665D01*
X138398878Y106594284D01*
X138256021Y106689522D01*
X138065545Y106737141D01*
X137684593Y106737141D01*
X137589355Y106689522D01*
X137541736Y106641903D01*
X137494116Y106546665D01*
X137494116Y106356189D01*
X137541736Y106260951D01*
X137589355Y106213332D01*
X137684593Y106165713D01*
X137922688Y106165713D01*
X138017926Y106213332D01*
X138065545Y106260951D01*
X138113164Y106356189D01*
X138113164Y106546665D01*
X138065545Y106641903D01*
X138017926Y106689522D01*
X137922688Y106737141D01*
%TO.C,Q8*%
X133255355Y105832379D02*
X133207736Y105737141D01*
X133112497Y105641903D01*
X132969640Y105499046D01*
X132922021Y105403808D01*
X132922021Y105308570D01*
X133160116Y105356189D02*
X133112497Y105260951D01*
X133017259Y105165713D01*
X132826783Y105118094D01*
X132493450Y105118094D01*
X132302974Y105165713D01*
X132207736Y105260951D01*
X132160116Y105356189D01*
X132160116Y105546665D01*
X132207736Y105641903D01*
X132302974Y105737141D01*
X132493450Y105784760D01*
X132826783Y105784760D01*
X133017259Y105737141D01*
X133112497Y105641903D01*
X133160116Y105546665D01*
X133160116Y105356189D01*
X132588688Y106356189D02*
X132541069Y106260951D01*
X132493450Y106213332D01*
X132398212Y106165713D01*
X132350593Y106165713D01*
X132255355Y106213332D01*
X132207736Y106260951D01*
X132160116Y106356189D01*
X132160116Y106546665D01*
X132207736Y106641903D01*
X132255355Y106689522D01*
X132350593Y106737141D01*
X132398212Y106737141D01*
X132493450Y106689522D01*
X132541069Y106641903D01*
X132588688Y106546665D01*
X132588688Y106356189D01*
X132636307Y106260951D01*
X132683926Y106213332D01*
X132779164Y106165713D01*
X132969640Y106165713D01*
X133064878Y106213332D01*
X133112497Y106260951D01*
X133160116Y106356189D01*
X133160116Y106546665D01*
X133112497Y106641903D01*
X133064878Y106689522D01*
X132969640Y106737141D01*
X132779164Y106737141D01*
X132683926Y106689522D01*
X132636307Y106641903D01*
X132588688Y106546665D01*
%TO.C,Q7*%
X127921355Y105832379D02*
X127873736Y105737141D01*
X127778497Y105641903D01*
X127635640Y105499046D01*
X127588021Y105403808D01*
X127588021Y105308570D01*
X127826116Y105356189D02*
X127778497Y105260951D01*
X127683259Y105165713D01*
X127492783Y105118094D01*
X127159450Y105118094D01*
X126968974Y105165713D01*
X126873736Y105260951D01*
X126826116Y105356189D01*
X126826116Y105546665D01*
X126873736Y105641903D01*
X126968974Y105737141D01*
X127159450Y105784760D01*
X127492783Y105784760D01*
X127683259Y105737141D01*
X127778497Y105641903D01*
X127826116Y105546665D01*
X127826116Y105356189D01*
X126826116Y106118094D02*
X126826116Y106784760D01*
X127826116Y106356189D01*
%TO.C,Q10*%
X136225883Y89386955D02*
X136178264Y89291717D01*
X136083025Y89196479D01*
X135940168Y89053622D01*
X135892549Y88958383D01*
X135892549Y88863145D01*
X136130644Y88910764D02*
X136083025Y88815526D01*
X135987787Y88720288D01*
X135797311Y88672669D01*
X135463978Y88672669D01*
X135273502Y88720288D01*
X135178264Y88815526D01*
X135130644Y88910764D01*
X135130644Y89101241D01*
X135178264Y89196479D01*
X135273502Y89291717D01*
X135463978Y89339336D01*
X135797311Y89339336D01*
X135987787Y89291717D01*
X136083025Y89196479D01*
X136130644Y89101241D01*
X136130644Y88910764D01*
X136130644Y90291717D02*
X136130644Y89720288D01*
X136130644Y90006003D02*
X135130644Y90006003D01*
X135273502Y89910764D01*
X135368740Y89815526D01*
X135416359Y89720288D01*
X135130644Y90910764D02*
X135130644Y91006003D01*
X135178264Y91101241D01*
X135225883Y91148860D01*
X135321121Y91196479D01*
X135511597Y91244098D01*
X135749692Y91244098D01*
X135940168Y91196479D01*
X136035406Y91148860D01*
X136083025Y91101241D01*
X136130644Y91006003D01*
X136130644Y90910764D01*
X136083025Y90815526D01*
X136035406Y90767907D01*
X135940168Y90720288D01*
X135749692Y90672669D01*
X135511597Y90672669D01*
X135321121Y90720288D01*
X135225883Y90767907D01*
X135178264Y90815526D01*
X135130644Y90910764D01*
%TO.C,Q5*%
X141762883Y124688345D02*
X141715264Y124593107D01*
X141620025Y124497869D01*
X141477168Y124355012D01*
X141429549Y124259774D01*
X141429549Y124164536D01*
X141667644Y124212155D02*
X141620025Y124116917D01*
X141524787Y124021679D01*
X141334311Y123974060D01*
X141000978Y123974060D01*
X140810502Y124021679D01*
X140715264Y124116917D01*
X140667644Y124212155D01*
X140667644Y124402631D01*
X140715264Y124497869D01*
X140810502Y124593107D01*
X141000978Y124640726D01*
X141334311Y124640726D01*
X141524787Y124593107D01*
X141620025Y124497869D01*
X141667644Y124402631D01*
X141667644Y124212155D01*
X140667644Y125545488D02*
X140667644Y125069298D01*
X141143835Y125021679D01*
X141096216Y125069298D01*
X141048597Y125164536D01*
X141048597Y125402631D01*
X141096216Y125497869D01*
X141143835Y125545488D01*
X141239073Y125593107D01*
X141477168Y125593107D01*
X141572406Y125545488D01*
X141620025Y125497869D01*
X141667644Y125402631D01*
X141667644Y125164536D01*
X141620025Y125069298D01*
X141572406Y125021679D01*
%TO.C,Q6*%
X147096883Y124688345D02*
X147049264Y124593107D01*
X146954025Y124497869D01*
X146811168Y124355012D01*
X146763549Y124259774D01*
X146763549Y124164536D01*
X147001644Y124212155D02*
X146954025Y124116917D01*
X146858787Y124021679D01*
X146668311Y123974060D01*
X146334978Y123974060D01*
X146144502Y124021679D01*
X146049264Y124116917D01*
X146001644Y124212155D01*
X146001644Y124402631D01*
X146049264Y124497869D01*
X146144502Y124593107D01*
X146334978Y124640726D01*
X146668311Y124640726D01*
X146858787Y124593107D01*
X146954025Y124497869D01*
X147001644Y124402631D01*
X147001644Y124212155D01*
X146001644Y125497869D02*
X146001644Y125307393D01*
X146049264Y125212155D01*
X146096883Y125164536D01*
X146239740Y125069298D01*
X146430216Y125021679D01*
X146811168Y125021679D01*
X146906406Y125069298D01*
X146954025Y125116917D01*
X147001644Y125212155D01*
X147001644Y125402631D01*
X146954025Y125497869D01*
X146906406Y125545488D01*
X146811168Y125593107D01*
X146573073Y125593107D01*
X146477835Y125545488D01*
X146430216Y125497869D01*
X146382597Y125402631D01*
X146382597Y125212155D01*
X146430216Y125116917D01*
X146477835Y125069298D01*
X146573073Y125021679D01*
%TO.C,Q3*%
X138310355Y140838179D02*
X138262736Y140742941D01*
X138167497Y140647703D01*
X138024640Y140504846D01*
X137977021Y140409608D01*
X137977021Y140314370D01*
X138215116Y140361989D02*
X138167497Y140266751D01*
X138072259Y140171513D01*
X137881783Y140123894D01*
X137548450Y140123894D01*
X137357974Y140171513D01*
X137262736Y140266751D01*
X137215116Y140361989D01*
X137215116Y140552465D01*
X137262736Y140647703D01*
X137357974Y140742941D01*
X137548450Y140790560D01*
X137881783Y140790560D01*
X138072259Y140742941D01*
X138167497Y140647703D01*
X138215116Y140552465D01*
X138215116Y140361989D01*
X137215116Y141123894D02*
X137215116Y141742941D01*
X137596069Y141409608D01*
X137596069Y141552465D01*
X137643688Y141647703D01*
X137691307Y141695322D01*
X137786545Y141742941D01*
X138024640Y141742941D01*
X138119878Y141695322D01*
X138167497Y141647703D01*
X138215116Y141552465D01*
X138215116Y141266751D01*
X138167497Y141171513D01*
X138119878Y141123894D01*
%TO.C,Q2*%
X132976355Y140838179D02*
X132928736Y140742941D01*
X132833497Y140647703D01*
X132690640Y140504846D01*
X132643021Y140409608D01*
X132643021Y140314370D01*
X132881116Y140361989D02*
X132833497Y140266751D01*
X132738259Y140171513D01*
X132547783Y140123894D01*
X132214450Y140123894D01*
X132023974Y140171513D01*
X131928736Y140266751D01*
X131881116Y140361989D01*
X131881116Y140552465D01*
X131928736Y140647703D01*
X132023974Y140742941D01*
X132214450Y140790560D01*
X132547783Y140790560D01*
X132738259Y140742941D01*
X132833497Y140647703D01*
X132881116Y140552465D01*
X132881116Y140361989D01*
X131976355Y141171513D02*
X131928736Y141219132D01*
X131881116Y141314370D01*
X131881116Y141552465D01*
X131928736Y141647703D01*
X131976355Y141695322D01*
X132071593Y141742941D01*
X132166831Y141742941D01*
X132309688Y141695322D01*
X132881116Y141123894D01*
X132881116Y141742941D01*
%TO.C,Q1*%
X127642355Y140838179D02*
X127594736Y140742941D01*
X127499497Y140647703D01*
X127356640Y140504846D01*
X127309021Y140409608D01*
X127309021Y140314370D01*
X127547116Y140361989D02*
X127499497Y140266751D01*
X127404259Y140171513D01*
X127213783Y140123894D01*
X126880450Y140123894D01*
X126689974Y140171513D01*
X126594736Y140266751D01*
X126547116Y140361989D01*
X126547116Y140552465D01*
X126594736Y140647703D01*
X126689974Y140742941D01*
X126880450Y140790560D01*
X127213783Y140790560D01*
X127404259Y140742941D01*
X127499497Y140647703D01*
X127547116Y140552465D01*
X127547116Y140361989D01*
X127547116Y141742941D02*
X127547116Y141171513D01*
X127547116Y141457227D02*
X126547116Y141457227D01*
X126689974Y141361989D01*
X126785212Y141266751D01*
X126832831Y141171513D01*
%TO.C,Q4*%
X136428883Y124688345D02*
X136381264Y124593107D01*
X136286025Y124497869D01*
X136143168Y124355012D01*
X136095549Y124259774D01*
X136095549Y124164536D01*
X136333644Y124212155D02*
X136286025Y124116917D01*
X136190787Y124021679D01*
X136000311Y123974060D01*
X135666978Y123974060D01*
X135476502Y124021679D01*
X135381264Y124116917D01*
X135333644Y124212155D01*
X135333644Y124402631D01*
X135381264Y124497869D01*
X135476502Y124593107D01*
X135666978Y124640726D01*
X136000311Y124640726D01*
X136190787Y124593107D01*
X136286025Y124497869D01*
X136333644Y124402631D01*
X136333644Y124212155D01*
X135666978Y125497869D02*
X136333644Y125497869D01*
X135286025Y125259774D02*
X136000311Y125021679D01*
X136000311Y125640726D01*
%TO.C,C1*%
X177357142Y115937334D02*
X177404761Y115889715D01*
X177452380Y115746858D01*
X177452380Y115651620D01*
X177404761Y115508762D01*
X177309523Y115413524D01*
X177214285Y115365905D01*
X177023809Y115318286D01*
X176880952Y115318286D01*
X176690476Y115365905D01*
X176595238Y115413524D01*
X176500000Y115508762D01*
X176452380Y115651620D01*
X176452380Y115746858D01*
X176500000Y115889715D01*
X176547619Y115937334D01*
X177452380Y116889715D02*
X177452380Y116318286D01*
X177452380Y116604000D02*
X176452380Y116604000D01*
X176595238Y116508762D01*
X176690476Y116413524D01*
X176738095Y116318286D01*
%TO.C,C2*%
X206059142Y116191334D02*
X206106761Y116143715D01*
X206154380Y116000858D01*
X206154380Y115905620D01*
X206106761Y115762762D01*
X206011523Y115667524D01*
X205916285Y115619905D01*
X205725809Y115572286D01*
X205582952Y115572286D01*
X205392476Y115619905D01*
X205297238Y115667524D01*
X205202000Y115762762D01*
X205154380Y115905620D01*
X205154380Y116000858D01*
X205202000Y116143715D01*
X205249619Y116191334D01*
X205249619Y116572286D02*
X205202000Y116619905D01*
X205154380Y116715143D01*
X205154380Y116953239D01*
X205202000Y117048477D01*
X205249619Y117096096D01*
X205344857Y117143715D01*
X205440095Y117143715D01*
X205582952Y117096096D01*
X206154380Y116524667D01*
X206154380Y117143715D01*
%TO.C,D21*%
X103206380Y131399715D02*
X102206380Y131399715D01*
X102206380Y131637810D01*
X102254000Y131780667D01*
X102349238Y131875905D01*
X102444476Y131923524D01*
X102634952Y131971143D01*
X102777809Y131971143D01*
X102968285Y131923524D01*
X103063523Y131875905D01*
X103158761Y131780667D01*
X103206380Y131637810D01*
X103206380Y131399715D01*
X102301619Y132352096D02*
X102254000Y132399715D01*
X102206380Y132494953D01*
X102206380Y132733048D01*
X102254000Y132828286D01*
X102301619Y132875905D01*
X102396857Y132923524D01*
X102492095Y132923524D01*
X102634952Y132875905D01*
X103206380Y132304477D01*
X103206380Y132923524D01*
X103206380Y133875905D02*
X103206380Y133304477D01*
X103206380Y133590191D02*
X102206380Y133590191D01*
X102349238Y133494953D01*
X102444476Y133399715D01*
X102492095Y133304477D01*
%TO.C,D22*%
X103079380Y96855715D02*
X102079380Y96855715D01*
X102079380Y97093810D01*
X102127000Y97236667D01*
X102222238Y97331905D01*
X102317476Y97379524D01*
X102507952Y97427143D01*
X102650809Y97427143D01*
X102841285Y97379524D01*
X102936523Y97331905D01*
X103031761Y97236667D01*
X103079380Y97093810D01*
X103079380Y96855715D01*
X102174619Y97808096D02*
X102127000Y97855715D01*
X102079380Y97950953D01*
X102079380Y98189048D01*
X102127000Y98284286D01*
X102174619Y98331905D01*
X102269857Y98379524D01*
X102365095Y98379524D01*
X102507952Y98331905D01*
X103079380Y97760477D01*
X103079380Y98379524D01*
X102174619Y98760477D02*
X102127000Y98808096D01*
X102079380Y98903334D01*
X102079380Y99141429D01*
X102127000Y99236667D01*
X102174619Y99284286D01*
X102269857Y99331905D01*
X102365095Y99331905D01*
X102507952Y99284286D01*
X103079380Y98712858D01*
X103079380Y99331905D01*
%TO.C,D23*%
X103333380Y60787715D02*
X102333380Y60787715D01*
X102333380Y61025810D01*
X102381000Y61168667D01*
X102476238Y61263905D01*
X102571476Y61311524D01*
X102761952Y61359143D01*
X102904809Y61359143D01*
X103095285Y61311524D01*
X103190523Y61263905D01*
X103285761Y61168667D01*
X103333380Y61025810D01*
X103333380Y60787715D01*
X102428619Y61740096D02*
X102381000Y61787715D01*
X102333380Y61882953D01*
X102333380Y62121048D01*
X102381000Y62216286D01*
X102428619Y62263905D01*
X102523857Y62311524D01*
X102619095Y62311524D01*
X102761952Y62263905D01*
X103333380Y61692477D01*
X103333380Y62311524D01*
X102333380Y62644858D02*
X102333380Y63263905D01*
X102714333Y62930572D01*
X102714333Y63073429D01*
X102761952Y63168667D01*
X102809571Y63216286D01*
X102904809Y63263905D01*
X103142904Y63263905D01*
X103238142Y63216286D01*
X103285761Y63168667D01*
X103333380Y63073429D01*
X103333380Y62787715D01*
X103285761Y62692477D01*
X103238142Y62644858D01*
X102963380Y66820096D02*
X101963380Y66820096D01*
X102963380Y67391524D02*
X102391952Y66962953D01*
X101963380Y67391524D02*
X102534809Y66820096D01*
%TO.C,D41*%
X98888380Y131399715D02*
X97888380Y131399715D01*
X97888380Y131637810D01*
X97936000Y131780667D01*
X98031238Y131875905D01*
X98126476Y131923524D01*
X98316952Y131971143D01*
X98459809Y131971143D01*
X98650285Y131923524D01*
X98745523Y131875905D01*
X98840761Y131780667D01*
X98888380Y131637810D01*
X98888380Y131399715D01*
X98221714Y132828286D02*
X98888380Y132828286D01*
X97840761Y132590191D02*
X98555047Y132352096D01*
X98555047Y132971143D01*
X98888380Y133875905D02*
X98888380Y133304477D01*
X98888380Y133590191D02*
X97888380Y133590191D01*
X98031238Y133494953D01*
X98126476Y133399715D01*
X98174095Y133304477D01*
%TO.C,D42*%
X98634380Y96855715D02*
X97634380Y96855715D01*
X97634380Y97093810D01*
X97682000Y97236667D01*
X97777238Y97331905D01*
X97872476Y97379524D01*
X98062952Y97427143D01*
X98205809Y97427143D01*
X98396285Y97379524D01*
X98491523Y97331905D01*
X98586761Y97236667D01*
X98634380Y97093810D01*
X98634380Y96855715D01*
X97967714Y98284286D02*
X98634380Y98284286D01*
X97586761Y98046191D02*
X98301047Y97808096D01*
X98301047Y98427143D01*
X97729619Y98760477D02*
X97682000Y98808096D01*
X97634380Y98903334D01*
X97634380Y99141429D01*
X97682000Y99236667D01*
X97729619Y99284286D01*
X97824857Y99331905D01*
X97920095Y99331905D01*
X98062952Y99284286D01*
X98634380Y98712858D01*
X98634380Y99331905D01*
X98264380Y102888096D02*
X97264380Y102888096D01*
X98264380Y103459524D02*
X97692952Y103030953D01*
X97264380Y103459524D02*
X97835809Y102888096D01*
%TO.C,D43*%
X98507380Y60787715D02*
X97507380Y60787715D01*
X97507380Y61025810D01*
X97555000Y61168667D01*
X97650238Y61263905D01*
X97745476Y61311524D01*
X97935952Y61359143D01*
X98078809Y61359143D01*
X98269285Y61311524D01*
X98364523Y61263905D01*
X98459761Y61168667D01*
X98507380Y61025810D01*
X98507380Y60787715D01*
X97840714Y62216286D02*
X98507380Y62216286D01*
X97459761Y61978191D02*
X98174047Y61740096D01*
X98174047Y62359143D01*
X97507380Y62644858D02*
X97507380Y63263905D01*
X97888333Y62930572D01*
X97888333Y63073429D01*
X97935952Y63168667D01*
X97983571Y63216286D01*
X98078809Y63263905D01*
X98316904Y63263905D01*
X98412142Y63216286D01*
X98459761Y63168667D01*
X98507380Y63073429D01*
X98507380Y62787715D01*
X98459761Y62692477D01*
X98412142Y62644858D01*
X98137380Y66820096D02*
X97137380Y66820096D01*
X98137380Y67391524D02*
X97565952Y66962953D01*
X97137380Y67391524D02*
X97708809Y66820096D01*
%TO.C,DA1*%
X150336380Y9527334D02*
X149336380Y9527334D01*
X149336380Y9765429D01*
X149384000Y9908286D01*
X149479238Y10003524D01*
X149574476Y10051143D01*
X149764952Y10098762D01*
X149907809Y10098762D01*
X150098285Y10051143D01*
X150193523Y10003524D01*
X150288761Y9908286D01*
X150336380Y9765429D01*
X150336380Y9527334D01*
X150050666Y10479715D02*
X150050666Y10955905D01*
X150336380Y10384477D02*
X149336380Y10717810D01*
X150336380Y11051143D01*
X150336380Y11908286D02*
X150336380Y11336858D01*
X150336380Y11622572D02*
X149336380Y11622572D01*
X149479238Y11527334D01*
X149574476Y11432096D01*
X149622095Y11336858D01*
%TO.C,DC1*%
X91014380Y24187905D02*
X90014380Y24187905D01*
X90014380Y24426000D01*
X90062000Y24568858D01*
X90157238Y24664096D01*
X90252476Y24711715D01*
X90442952Y24759334D01*
X90585809Y24759334D01*
X90776285Y24711715D01*
X90871523Y24664096D01*
X90966761Y24568858D01*
X91014380Y24426000D01*
X91014380Y24187905D01*
X90919142Y25759334D02*
X90966761Y25711715D01*
X91014380Y25568858D01*
X91014380Y25473620D01*
X90966761Y25330762D01*
X90871523Y25235524D01*
X90776285Y25187905D01*
X90585809Y25140286D01*
X90442952Y25140286D01*
X90252476Y25187905D01*
X90157238Y25235524D01*
X90062000Y25330762D01*
X90014380Y25473620D01*
X90014380Y25568858D01*
X90062000Y25711715D01*
X90109619Y25759334D01*
X91014380Y26711715D02*
X91014380Y26140286D01*
X91014380Y26426000D02*
X90014380Y26426000D01*
X90157238Y26330762D01*
X90252476Y26235524D01*
X90300095Y26140286D01*
X90644380Y30244096D02*
X89644380Y30244096D01*
X90644380Y30815524D02*
X90072952Y30386953D01*
X89644380Y30815524D02*
X90215809Y30244096D01*
%TO.C,DS1*%
X191090380Y9225715D02*
X190090380Y9225715D01*
X190090380Y9463810D01*
X190138000Y9606667D01*
X190233238Y9701905D01*
X190328476Y9749524D01*
X190518952Y9797143D01*
X190661809Y9797143D01*
X190852285Y9749524D01*
X190947523Y9701905D01*
X191042761Y9606667D01*
X191090380Y9463810D01*
X191090380Y9225715D01*
X191042761Y10178096D02*
X191090380Y10320953D01*
X191090380Y10559048D01*
X191042761Y10654286D01*
X190995142Y10701905D01*
X190899904Y10749524D01*
X190804666Y10749524D01*
X190709428Y10701905D01*
X190661809Y10654286D01*
X190614190Y10559048D01*
X190566571Y10368572D01*
X190518952Y10273334D01*
X190471333Y10225715D01*
X190376095Y10178096D01*
X190280857Y10178096D01*
X190185619Y10225715D01*
X190138000Y10273334D01*
X190090380Y10368572D01*
X190090380Y10606667D01*
X190138000Y10749524D01*
X191090380Y11701905D02*
X191090380Y11130477D01*
X191090380Y11416191D02*
X190090380Y11416191D01*
X190233238Y11320953D01*
X190328476Y11225715D01*
X190376095Y11130477D01*
X190720380Y15258096D02*
X189720380Y15258096D01*
X190720380Y15829524D02*
X190148952Y15400953D01*
X189720380Y15829524D02*
X190291809Y15258096D01*
%TO.C,JA1*%
X194518095Y22671620D02*
X194518095Y21957334D01*
X194470476Y21814477D01*
X194375238Y21719239D01*
X194232380Y21671620D01*
X194137142Y21671620D01*
X194946666Y21957334D02*
X195422857Y21957334D01*
X194851428Y21671620D02*
X195184761Y22671620D01*
X195518095Y21671620D01*
X196375238Y21671620D02*
X195803809Y21671620D01*
X196089523Y21671620D02*
X196089523Y22671620D01*
X195994285Y22528762D01*
X195899047Y22433524D01*
X195803809Y22385905D01*
%TO.C,JE1*%
X196046380Y152148286D02*
X196760666Y152148286D01*
X196903523Y152100667D01*
X196998761Y152005429D01*
X197046380Y151862572D01*
X197046380Y151767334D01*
X196522571Y152624477D02*
X196522571Y152957810D01*
X197046380Y153100667D02*
X197046380Y152624477D01*
X196046380Y152624477D01*
X196046380Y153100667D01*
X197046380Y154053048D02*
X197046380Y153481620D01*
X197046380Y153767334D02*
X196046380Y153767334D01*
X196189238Y153672096D01*
X196284476Y153576858D01*
X196332095Y153481620D01*
%TO.C,JEX1*%
X211732095Y14377620D02*
X211732095Y13663334D01*
X211684476Y13520477D01*
X211589238Y13425239D01*
X211446380Y13377620D01*
X211351142Y13377620D01*
X212208285Y13901429D02*
X212541619Y13901429D01*
X212684476Y13377620D02*
X212208285Y13377620D01*
X212208285Y14377620D01*
X212684476Y14377620D01*
X213017809Y14377620D02*
X213684476Y13377620D01*
X213684476Y14377620D02*
X213017809Y13377620D01*
X214589238Y13377620D02*
X214017809Y13377620D01*
X214303523Y13377620D02*
X214303523Y14377620D01*
X214208285Y14234762D01*
X214113047Y14139524D01*
X214017809Y14091905D01*
%TO.C,JM1*%
X166284380Y90815239D02*
X166998666Y90815239D01*
X167141523Y90767620D01*
X167236761Y90672381D01*
X167284380Y90529524D01*
X167284380Y90434286D01*
X167284380Y91291429D02*
X166284380Y91291429D01*
X166998666Y91624762D01*
X166284380Y91958096D01*
X167284380Y91958096D01*
X167284380Y92958096D02*
X167284380Y92386667D01*
X167284380Y92672381D02*
X166284380Y92672381D01*
X166427238Y92577143D01*
X166522476Y92481905D01*
X166570095Y92386667D01*
%TO.C,K21*%
X107086380Y131715715D02*
X106086380Y131715715D01*
X107086380Y132287143D02*
X106514952Y131858572D01*
X106086380Y132287143D02*
X106657809Y131715715D01*
X106181619Y132668096D02*
X106134000Y132715715D01*
X106086380Y132810953D01*
X106086380Y133049048D01*
X106134000Y133144286D01*
X106181619Y133191905D01*
X106276857Y133239524D01*
X106372095Y133239524D01*
X106514952Y133191905D01*
X107086380Y132620477D01*
X107086380Y133239524D01*
X107086380Y134191905D02*
X107086380Y133620477D01*
X107086380Y133906191D02*
X106086380Y133906191D01*
X106229238Y133810953D01*
X106324476Y133715715D01*
X106372095Y133620477D01*
%TO.C,K22*%
X106832380Y96601715D02*
X105832380Y96601715D01*
X106832380Y97173143D02*
X106260952Y96744572D01*
X105832380Y97173143D02*
X106403809Y96601715D01*
X105927619Y97554096D02*
X105880000Y97601715D01*
X105832380Y97696953D01*
X105832380Y97935048D01*
X105880000Y98030286D01*
X105927619Y98077905D01*
X106022857Y98125524D01*
X106118095Y98125524D01*
X106260952Y98077905D01*
X106832380Y97506477D01*
X106832380Y98125524D01*
X105927619Y98506477D02*
X105880000Y98554096D01*
X105832380Y98649334D01*
X105832380Y98887429D01*
X105880000Y98982667D01*
X105927619Y99030286D01*
X106022857Y99077905D01*
X106118095Y99077905D01*
X106260952Y99030286D01*
X106832380Y98458858D01*
X106832380Y99077905D01*
%TO.C,K23*%
X107086380Y61549715D02*
X106086380Y61549715D01*
X107086380Y62121143D02*
X106514952Y61692572D01*
X106086380Y62121143D02*
X106657809Y61549715D01*
X106181619Y62502096D02*
X106134000Y62549715D01*
X106086380Y62644953D01*
X106086380Y62883048D01*
X106134000Y62978286D01*
X106181619Y63025905D01*
X106276857Y63073524D01*
X106372095Y63073524D01*
X106514952Y63025905D01*
X107086380Y62454477D01*
X107086380Y63073524D01*
X106086380Y63406858D02*
X106086380Y64025905D01*
X106467333Y63692572D01*
X106467333Y63835429D01*
X106514952Y63930667D01*
X106562571Y63978286D01*
X106657809Y64025905D01*
X106895904Y64025905D01*
X106991142Y63978286D01*
X107038761Y63930667D01*
X107086380Y63835429D01*
X107086380Y63549715D01*
X107038761Y63454477D01*
X106991142Y63406858D01*
%TO.C,KA1*%
X144170380Y9527334D02*
X143170380Y9527334D01*
X144170380Y10098762D02*
X143598952Y9670191D01*
X143170380Y10098762D02*
X143741809Y9527334D01*
X143884666Y10479715D02*
X143884666Y10955905D01*
X144170380Y10384477D02*
X143170380Y10717810D01*
X144170380Y11051143D01*
X144170380Y11908286D02*
X144170380Y11336858D01*
X144170380Y11622572D02*
X143170380Y11622572D01*
X143313238Y11527334D01*
X143408476Y11432096D01*
X143456095Y11336858D01*
%TO.C,Ki1*%
X100044380Y25033809D02*
X99044380Y25033809D01*
X100044380Y25605238D02*
X99472952Y25176666D01*
X99044380Y25605238D02*
X99615809Y25033809D01*
X100044380Y26033809D02*
X99377714Y26033809D01*
X99044380Y26033809D02*
X99092000Y25986190D01*
X99139619Y26033809D01*
X99092000Y26081428D01*
X99044380Y26033809D01*
X99139619Y26033809D01*
X100044380Y27033809D02*
X100044380Y26462380D01*
X100044380Y26748095D02*
X99044380Y26748095D01*
X99187238Y26652857D01*
X99282476Y26557619D01*
X99330095Y26462380D01*
%TO.C,KS1*%
X180238380Y9479715D02*
X179238380Y9479715D01*
X180238380Y10051143D02*
X179666952Y9622572D01*
X179238380Y10051143D02*
X179809809Y9479715D01*
X180190761Y10432096D02*
X180238380Y10574953D01*
X180238380Y10813048D01*
X180190761Y10908286D01*
X180143142Y10955905D01*
X180047904Y11003524D01*
X179952666Y11003524D01*
X179857428Y10955905D01*
X179809809Y10908286D01*
X179762190Y10813048D01*
X179714571Y10622572D01*
X179666952Y10527334D01*
X179619333Y10479715D01*
X179524095Y10432096D01*
X179428857Y10432096D01*
X179333619Y10479715D01*
X179286000Y10527334D01*
X179238380Y10622572D01*
X179238380Y10860667D01*
X179286000Y11003524D01*
X180238380Y11955905D02*
X180238380Y11384477D01*
X180238380Y11670191D02*
X179238380Y11670191D01*
X179381238Y11574953D01*
X179476476Y11479715D01*
X179524095Y11384477D01*
%TO.C,R1*%
X154549533Y135971620D02*
X154216200Y136447810D01*
X153978104Y135971620D02*
X153978104Y136971620D01*
X154359057Y136971620D01*
X154454295Y136924000D01*
X154501914Y136876381D01*
X154549533Y136781143D01*
X154549533Y136638286D01*
X154501914Y136543048D01*
X154454295Y136495429D01*
X154359057Y136447810D01*
X153978104Y136447810D01*
X155501914Y135971620D02*
X154930485Y135971620D01*
X155216200Y135971620D02*
X155216200Y136971620D01*
X155120961Y136828762D01*
X155025723Y136733524D01*
X154930485Y136685905D01*
%TO.C,R2*%
X154676533Y143566220D02*
X154343200Y144042410D01*
X154105104Y143566220D02*
X154105104Y144566220D01*
X154486057Y144566220D01*
X154581295Y144518600D01*
X154628914Y144470981D01*
X154676533Y144375743D01*
X154676533Y144232886D01*
X154628914Y144137648D01*
X154581295Y144090029D01*
X154486057Y144042410D01*
X154105104Y144042410D01*
X155057485Y144470981D02*
X155105104Y144518600D01*
X155200342Y144566220D01*
X155438438Y144566220D01*
X155533676Y144518600D01*
X155581295Y144470981D01*
X155628914Y144375743D01*
X155628914Y144280505D01*
X155581295Y144137648D01*
X155009866Y143566220D01*
X155628914Y143566220D01*
%TO.C,R3*%
X154600333Y139807020D02*
X154267000Y140283210D01*
X154028904Y139807020D02*
X154028904Y140807020D01*
X154409857Y140807020D01*
X154505095Y140759400D01*
X154552714Y140711781D01*
X154600333Y140616543D01*
X154600333Y140473686D01*
X154552714Y140378448D01*
X154505095Y140330829D01*
X154409857Y140283210D01*
X154028904Y140283210D01*
X154933666Y140807020D02*
X155552714Y140807020D01*
X155219380Y140426067D01*
X155362238Y140426067D01*
X155457476Y140378448D01*
X155505095Y140330829D01*
X155552714Y140235591D01*
X155552714Y139997496D01*
X155505095Y139902258D01*
X155457476Y139854639D01*
X155362238Y139807020D01*
X155076523Y139807020D01*
X154981285Y139854639D01*
X154933666Y139902258D01*
%TO.C,R4*%
X154473333Y120731620D02*
X154140000Y121207810D01*
X153901904Y120731620D02*
X153901904Y121731620D01*
X154282857Y121731620D01*
X154378095Y121684000D01*
X154425714Y121636381D01*
X154473333Y121541143D01*
X154473333Y121398286D01*
X154425714Y121303048D01*
X154378095Y121255429D01*
X154282857Y121207810D01*
X153901904Y121207810D01*
X155330476Y121398286D02*
X155330476Y120731620D01*
X155092380Y121779239D02*
X154854285Y121064953D01*
X155473333Y121064953D01*
%TO.C,R5*%
X154473333Y128351620D02*
X154140000Y128827810D01*
X153901904Y128351620D02*
X153901904Y129351620D01*
X154282857Y129351620D01*
X154378095Y129304000D01*
X154425714Y129256381D01*
X154473333Y129161143D01*
X154473333Y129018286D01*
X154425714Y128923048D01*
X154378095Y128875429D01*
X154282857Y128827810D01*
X153901904Y128827810D01*
X155378095Y129351620D02*
X154901904Y129351620D01*
X154854285Y128875429D01*
X154901904Y128923048D01*
X154997142Y128970667D01*
X155235238Y128970667D01*
X155330476Y128923048D01*
X155378095Y128875429D01*
X155425714Y128780191D01*
X155425714Y128542096D01*
X155378095Y128446858D01*
X155330476Y128399239D01*
X155235238Y128351620D01*
X154997142Y128351620D01*
X154901904Y128399239D01*
X154854285Y128446858D01*
%TO.C,R6*%
X154473333Y124541620D02*
X154140000Y125017810D01*
X153901904Y124541620D02*
X153901904Y125541620D01*
X154282857Y125541620D01*
X154378095Y125494000D01*
X154425714Y125446381D01*
X154473333Y125351143D01*
X154473333Y125208286D01*
X154425714Y125113048D01*
X154378095Y125065429D01*
X154282857Y125017810D01*
X153901904Y125017810D01*
X155330476Y125541620D02*
X155140000Y125541620D01*
X155044761Y125494000D01*
X154997142Y125446381D01*
X154901904Y125303524D01*
X154854285Y125113048D01*
X154854285Y124732096D01*
X154901904Y124636858D01*
X154949523Y124589239D01*
X155044761Y124541620D01*
X155235238Y124541620D01*
X155330476Y124589239D01*
X155378095Y124636858D01*
X155425714Y124732096D01*
X155425714Y124970191D01*
X155378095Y125065429D01*
X155330476Y125113048D01*
X155235238Y125160667D01*
X155044761Y125160667D01*
X154949523Y125113048D01*
X154901904Y125065429D01*
X154854285Y124970191D01*
%TO.C,R7*%
X154473333Y101681620D02*
X154140000Y102157810D01*
X153901904Y101681620D02*
X153901904Y102681620D01*
X154282857Y102681620D01*
X154378095Y102634000D01*
X154425714Y102586381D01*
X154473333Y102491143D01*
X154473333Y102348286D01*
X154425714Y102253048D01*
X154378095Y102205429D01*
X154282857Y102157810D01*
X153901904Y102157810D01*
X154806666Y102681620D02*
X155473333Y102681620D01*
X155044761Y101681620D01*
%TO.C,R8*%
X154473333Y109301620D02*
X154140000Y109777810D01*
X153901904Y109301620D02*
X153901904Y110301620D01*
X154282857Y110301620D01*
X154378095Y110254000D01*
X154425714Y110206381D01*
X154473333Y110111143D01*
X154473333Y109968286D01*
X154425714Y109873048D01*
X154378095Y109825429D01*
X154282857Y109777810D01*
X153901904Y109777810D01*
X155044761Y109873048D02*
X154949523Y109920667D01*
X154901904Y109968286D01*
X154854285Y110063524D01*
X154854285Y110111143D01*
X154901904Y110206381D01*
X154949523Y110254000D01*
X155044761Y110301620D01*
X155235238Y110301620D01*
X155330476Y110254000D01*
X155378095Y110206381D01*
X155425714Y110111143D01*
X155425714Y110063524D01*
X155378095Y109968286D01*
X155330476Y109920667D01*
X155235238Y109873048D01*
X155044761Y109873048D01*
X154949523Y109825429D01*
X154901904Y109777810D01*
X154854285Y109682572D01*
X154854285Y109492096D01*
X154901904Y109396858D01*
X154949523Y109349239D01*
X155044761Y109301620D01*
X155235238Y109301620D01*
X155330476Y109349239D01*
X155378095Y109396858D01*
X155425714Y109492096D01*
X155425714Y109682572D01*
X155378095Y109777810D01*
X155330476Y109825429D01*
X155235238Y109873048D01*
%TO.C,R9*%
X154473333Y105491620D02*
X154140000Y105967810D01*
X153901904Y105491620D02*
X153901904Y106491620D01*
X154282857Y106491620D01*
X154378095Y106444000D01*
X154425714Y106396381D01*
X154473333Y106301143D01*
X154473333Y106158286D01*
X154425714Y106063048D01*
X154378095Y106015429D01*
X154282857Y105967810D01*
X153901904Y105967810D01*
X154949523Y105491620D02*
X155140000Y105491620D01*
X155235238Y105539239D01*
X155282857Y105586858D01*
X155378095Y105729715D01*
X155425714Y105920191D01*
X155425714Y106301143D01*
X155378095Y106396381D01*
X155330476Y106444000D01*
X155235238Y106491620D01*
X155044761Y106491620D01*
X154949523Y106444000D01*
X154901904Y106396381D01*
X154854285Y106301143D01*
X154854285Y106063048D01*
X154901904Y105967810D01*
X154949523Y105920191D01*
X155044761Y105872572D01*
X155235238Y105872572D01*
X155330476Y105920191D01*
X155378095Y105967810D01*
X155425714Y106063048D01*
%TO.C,R10*%
X153997142Y85425620D02*
X153663809Y85901810D01*
X153425714Y85425620D02*
X153425714Y86425620D01*
X153806666Y86425620D01*
X153901904Y86378000D01*
X153949523Y86330381D01*
X153997142Y86235143D01*
X153997142Y86092286D01*
X153949523Y85997048D01*
X153901904Y85949429D01*
X153806666Y85901810D01*
X153425714Y85901810D01*
X154949523Y85425620D02*
X154378095Y85425620D01*
X154663809Y85425620D02*
X154663809Y86425620D01*
X154568571Y86282762D01*
X154473333Y86187524D01*
X154378095Y86139905D01*
X155568571Y86425620D02*
X155663809Y86425620D01*
X155759047Y86378000D01*
X155806666Y86330381D01*
X155854285Y86235143D01*
X155901904Y86044667D01*
X155901904Y85806572D01*
X155854285Y85616096D01*
X155806666Y85520858D01*
X155759047Y85473239D01*
X155663809Y85425620D01*
X155568571Y85425620D01*
X155473333Y85473239D01*
X155425714Y85520858D01*
X155378095Y85616096D01*
X155330476Y85806572D01*
X155330476Y86044667D01*
X155378095Y86235143D01*
X155425714Y86330381D01*
X155473333Y86378000D01*
X155568571Y86425620D01*
%TO.C,R11*%
X153997142Y93045620D02*
X153663809Y93521810D01*
X153425714Y93045620D02*
X153425714Y94045620D01*
X153806666Y94045620D01*
X153901904Y93998000D01*
X153949523Y93950381D01*
X153997142Y93855143D01*
X153997142Y93712286D01*
X153949523Y93617048D01*
X153901904Y93569429D01*
X153806666Y93521810D01*
X153425714Y93521810D01*
X154949523Y93045620D02*
X154378095Y93045620D01*
X154663809Y93045620D02*
X154663809Y94045620D01*
X154568571Y93902762D01*
X154473333Y93807524D01*
X154378095Y93759905D01*
X155901904Y93045620D02*
X155330476Y93045620D01*
X155616190Y93045620D02*
X155616190Y94045620D01*
X155520952Y93902762D01*
X155425714Y93807524D01*
X155330476Y93759905D01*
%TO.C,R12*%
X153997142Y89235620D02*
X153663809Y89711810D01*
X153425714Y89235620D02*
X153425714Y90235620D01*
X153806666Y90235620D01*
X153901904Y90188000D01*
X153949523Y90140381D01*
X153997142Y90045143D01*
X153997142Y89902286D01*
X153949523Y89807048D01*
X153901904Y89759429D01*
X153806666Y89711810D01*
X153425714Y89711810D01*
X154949523Y89235620D02*
X154378095Y89235620D01*
X154663809Y89235620D02*
X154663809Y90235620D01*
X154568571Y90092762D01*
X154473333Y89997524D01*
X154378095Y89949905D01*
X155330476Y90140381D02*
X155378095Y90188000D01*
X155473333Y90235620D01*
X155711428Y90235620D01*
X155806666Y90188000D01*
X155854285Y90140381D01*
X155901904Y90045143D01*
X155901904Y89949905D01*
X155854285Y89807048D01*
X155282857Y89235620D01*
X155901904Y89235620D01*
%TO.C,R13*%
X154251142Y65867620D02*
X153917809Y66343810D01*
X153679714Y65867620D02*
X153679714Y66867620D01*
X154060666Y66867620D01*
X154155904Y66820000D01*
X154203523Y66772381D01*
X154251142Y66677143D01*
X154251142Y66534286D01*
X154203523Y66439048D01*
X154155904Y66391429D01*
X154060666Y66343810D01*
X153679714Y66343810D01*
X155203523Y65867620D02*
X154632095Y65867620D01*
X154917809Y65867620D02*
X154917809Y66867620D01*
X154822571Y66724762D01*
X154727333Y66629524D01*
X154632095Y66581905D01*
X155536857Y66867620D02*
X156155904Y66867620D01*
X155822571Y66486667D01*
X155965428Y66486667D01*
X156060666Y66439048D01*
X156108285Y66391429D01*
X156155904Y66296191D01*
X156155904Y66058096D01*
X156108285Y65962858D01*
X156060666Y65915239D01*
X155965428Y65867620D01*
X155679714Y65867620D01*
X155584476Y65915239D01*
X155536857Y65962858D01*
%TO.C,R14*%
X154251142Y73487620D02*
X153917809Y73963810D01*
X153679714Y73487620D02*
X153679714Y74487620D01*
X154060666Y74487620D01*
X154155904Y74440000D01*
X154203523Y74392381D01*
X154251142Y74297143D01*
X154251142Y74154286D01*
X154203523Y74059048D01*
X154155904Y74011429D01*
X154060666Y73963810D01*
X153679714Y73963810D01*
X155203523Y73487620D02*
X154632095Y73487620D01*
X154917809Y73487620D02*
X154917809Y74487620D01*
X154822571Y74344762D01*
X154727333Y74249524D01*
X154632095Y74201905D01*
X156060666Y74154286D02*
X156060666Y73487620D01*
X155822571Y74535239D02*
X155584476Y73820953D01*
X156203523Y73820953D01*
%TO.C,R15*%
X154251142Y69677620D02*
X153917809Y70153810D01*
X153679714Y69677620D02*
X153679714Y70677620D01*
X154060666Y70677620D01*
X154155904Y70630000D01*
X154203523Y70582381D01*
X154251142Y70487143D01*
X154251142Y70344286D01*
X154203523Y70249048D01*
X154155904Y70201429D01*
X154060666Y70153810D01*
X153679714Y70153810D01*
X155203523Y69677620D02*
X154632095Y69677620D01*
X154917809Y69677620D02*
X154917809Y70677620D01*
X154822571Y70534762D01*
X154727333Y70439524D01*
X154632095Y70391905D01*
X156108285Y70677620D02*
X155632095Y70677620D01*
X155584476Y70201429D01*
X155632095Y70249048D01*
X155727333Y70296667D01*
X155965428Y70296667D01*
X156060666Y70249048D01*
X156108285Y70201429D01*
X156155904Y70106191D01*
X156155904Y69868096D01*
X156108285Y69772858D01*
X156060666Y69725239D01*
X155965428Y69677620D01*
X155727333Y69677620D01*
X155632095Y69725239D01*
X155584476Y69772858D01*
%TO.C,R16*%
X154505142Y49865620D02*
X154171809Y50341810D01*
X153933714Y49865620D02*
X153933714Y50865620D01*
X154314666Y50865620D01*
X154409904Y50818000D01*
X154457523Y50770381D01*
X154505142Y50675143D01*
X154505142Y50532286D01*
X154457523Y50437048D01*
X154409904Y50389429D01*
X154314666Y50341810D01*
X153933714Y50341810D01*
X155457523Y49865620D02*
X154886095Y49865620D01*
X155171809Y49865620D02*
X155171809Y50865620D01*
X155076571Y50722762D01*
X154981333Y50627524D01*
X154886095Y50579905D01*
X156314666Y50865620D02*
X156124190Y50865620D01*
X156028952Y50818000D01*
X155981333Y50770381D01*
X155886095Y50627524D01*
X155838476Y50437048D01*
X155838476Y50056096D01*
X155886095Y49960858D01*
X155933714Y49913239D01*
X156028952Y49865620D01*
X156219428Y49865620D01*
X156314666Y49913239D01*
X156362285Y49960858D01*
X156409904Y50056096D01*
X156409904Y50294191D01*
X156362285Y50389429D01*
X156314666Y50437048D01*
X156219428Y50484667D01*
X156028952Y50484667D01*
X155933714Y50437048D01*
X155886095Y50389429D01*
X155838476Y50294191D01*
%TO.C,R17*%
X154505142Y57485620D02*
X154171809Y57961810D01*
X153933714Y57485620D02*
X153933714Y58485620D01*
X154314666Y58485620D01*
X154409904Y58438000D01*
X154457523Y58390381D01*
X154505142Y58295143D01*
X154505142Y58152286D01*
X154457523Y58057048D01*
X154409904Y58009429D01*
X154314666Y57961810D01*
X153933714Y57961810D01*
X155457523Y57485620D02*
X154886095Y57485620D01*
X155171809Y57485620D02*
X155171809Y58485620D01*
X155076571Y58342762D01*
X154981333Y58247524D01*
X154886095Y58199905D01*
X155790857Y58485620D02*
X156457523Y58485620D01*
X156028952Y57485620D01*
%TO.C,R18*%
X154505142Y53675620D02*
X154171809Y54151810D01*
X153933714Y53675620D02*
X153933714Y54675620D01*
X154314666Y54675620D01*
X154409904Y54628000D01*
X154457523Y54580381D01*
X154505142Y54485143D01*
X154505142Y54342286D01*
X154457523Y54247048D01*
X154409904Y54199429D01*
X154314666Y54151810D01*
X153933714Y54151810D01*
X155457523Y53675620D02*
X154886095Y53675620D01*
X155171809Y53675620D02*
X155171809Y54675620D01*
X155076571Y54532762D01*
X154981333Y54437524D01*
X154886095Y54389905D01*
X156028952Y54247048D02*
X155933714Y54294667D01*
X155886095Y54342286D01*
X155838476Y54437524D01*
X155838476Y54485143D01*
X155886095Y54580381D01*
X155933714Y54628000D01*
X156028952Y54675620D01*
X156219428Y54675620D01*
X156314666Y54628000D01*
X156362285Y54580381D01*
X156409904Y54485143D01*
X156409904Y54437524D01*
X156362285Y54342286D01*
X156314666Y54294667D01*
X156219428Y54247048D01*
X156028952Y54247048D01*
X155933714Y54199429D01*
X155886095Y54151810D01*
X155838476Y54056572D01*
X155838476Y53866096D01*
X155886095Y53770858D01*
X155933714Y53723239D01*
X156028952Y53675620D01*
X156219428Y53675620D01*
X156314666Y53723239D01*
X156362285Y53770858D01*
X156409904Y53866096D01*
X156409904Y54056572D01*
X156362285Y54151810D01*
X156314666Y54199429D01*
X156219428Y54247048D01*
%TO.C,R19*%
X152219142Y45801620D02*
X151885809Y46277810D01*
X151647714Y45801620D02*
X151647714Y46801620D01*
X152028666Y46801620D01*
X152123904Y46754000D01*
X152171523Y46706381D01*
X152219142Y46611143D01*
X152219142Y46468286D01*
X152171523Y46373048D01*
X152123904Y46325429D01*
X152028666Y46277810D01*
X151647714Y46277810D01*
X153171523Y45801620D02*
X152600095Y45801620D01*
X152885809Y45801620D02*
X152885809Y46801620D01*
X152790571Y46658762D01*
X152695333Y46563524D01*
X152600095Y46515905D01*
X153647714Y45801620D02*
X153838190Y45801620D01*
X153933428Y45849239D01*
X153981047Y45896858D01*
X154076285Y46039715D01*
X154123904Y46230191D01*
X154123904Y46611143D01*
X154076285Y46706381D01*
X154028666Y46754000D01*
X153933428Y46801620D01*
X153742952Y46801620D01*
X153647714Y46754000D01*
X153600095Y46706381D01*
X153552476Y46611143D01*
X153552476Y46373048D01*
X153600095Y46277810D01*
X153647714Y46230191D01*
X153742952Y46182572D01*
X153933428Y46182572D01*
X154028666Y46230191D01*
X154076285Y46277810D01*
X154123904Y46373048D01*
%TO.C,R22*%
X164109380Y145560143D02*
X163633190Y145226810D01*
X164109380Y144988715D02*
X163109380Y144988715D01*
X163109380Y145369667D01*
X163157000Y145464905D01*
X163204619Y145512524D01*
X163299857Y145560143D01*
X163442714Y145560143D01*
X163537952Y145512524D01*
X163585571Y145464905D01*
X163633190Y145369667D01*
X163633190Y144988715D01*
X163204619Y145941096D02*
X163157000Y145988715D01*
X163109380Y146083953D01*
X163109380Y146322048D01*
X163157000Y146417286D01*
X163204619Y146464905D01*
X163299857Y146512524D01*
X163395095Y146512524D01*
X163537952Y146464905D01*
X164109380Y145893477D01*
X164109380Y146512524D01*
X163204619Y146893477D02*
X163157000Y146941096D01*
X163109380Y147036334D01*
X163109380Y147274429D01*
X163157000Y147369667D01*
X163204619Y147417286D01*
X163299857Y147464905D01*
X163395095Y147464905D01*
X163537952Y147417286D01*
X164109380Y146845858D01*
X164109380Y147464905D01*
%TO.C,R23*%
X205305142Y149179620D02*
X204971809Y149655810D01*
X204733714Y149179620D02*
X204733714Y150179620D01*
X205114666Y150179620D01*
X205209904Y150132000D01*
X205257523Y150084381D01*
X205305142Y149989143D01*
X205305142Y149846286D01*
X205257523Y149751048D01*
X205209904Y149703429D01*
X205114666Y149655810D01*
X204733714Y149655810D01*
X205686095Y150084381D02*
X205733714Y150132000D01*
X205828952Y150179620D01*
X206067047Y150179620D01*
X206162285Y150132000D01*
X206209904Y150084381D01*
X206257523Y149989143D01*
X206257523Y149893905D01*
X206209904Y149751048D01*
X205638476Y149179620D01*
X206257523Y149179620D01*
X206590857Y150179620D02*
X207209904Y150179620D01*
X206876571Y149798667D01*
X207019428Y149798667D01*
X207114666Y149751048D01*
X207162285Y149703429D01*
X207209904Y149608191D01*
X207209904Y149370096D01*
X207162285Y149274858D01*
X207114666Y149227239D01*
X207019428Y149179620D01*
X206733714Y149179620D01*
X206638476Y149227239D01*
X206590857Y149274858D01*
%TO.C,Rb1*%
X183230952Y105499620D02*
X182897619Y105975810D01*
X182659523Y105499620D02*
X182659523Y106499620D01*
X183040476Y106499620D01*
X183135714Y106452000D01*
X183183333Y106404381D01*
X183230952Y106309143D01*
X183230952Y106166286D01*
X183183333Y106071048D01*
X183135714Y106023429D01*
X183040476Y105975810D01*
X182659523Y105975810D01*
X183659523Y105499620D02*
X183659523Y106499620D01*
X183659523Y106118667D02*
X183754761Y106166286D01*
X183945238Y106166286D01*
X184040476Y106118667D01*
X184088095Y106071048D01*
X184135714Y105975810D01*
X184135714Y105690096D01*
X184088095Y105594858D01*
X184040476Y105547239D01*
X183945238Y105499620D01*
X183754761Y105499620D01*
X183659523Y105547239D01*
X185088095Y105499620D02*
X184516666Y105499620D01*
X184802380Y105499620D02*
X184802380Y106499620D01*
X184707142Y106356762D01*
X184611904Y106261524D01*
X184516666Y106213905D01*
%TO.C,Rb2*%
X206852952Y111579620D02*
X206519619Y112055810D01*
X206281523Y111579620D02*
X206281523Y112579620D01*
X206662476Y112579620D01*
X206757714Y112532000D01*
X206805333Y112484381D01*
X206852952Y112389143D01*
X206852952Y112246286D01*
X206805333Y112151048D01*
X206757714Y112103429D01*
X206662476Y112055810D01*
X206281523Y112055810D01*
X207281523Y111579620D02*
X207281523Y112579620D01*
X207281523Y112198667D02*
X207376761Y112246286D01*
X207567238Y112246286D01*
X207662476Y112198667D01*
X207710095Y112151048D01*
X207757714Y112055810D01*
X207757714Y111770096D01*
X207710095Y111674858D01*
X207662476Y111627239D01*
X207567238Y111579620D01*
X207376761Y111579620D01*
X207281523Y111627239D01*
X208138666Y112484381D02*
X208186285Y112532000D01*
X208281523Y112579620D01*
X208519619Y112579620D01*
X208614857Y112532000D01*
X208662476Y112484381D01*
X208710095Y112389143D01*
X208710095Y112293905D01*
X208662476Y112151048D01*
X208091047Y111579620D01*
X208710095Y111579620D01*
%TO.C,RC1*%
X152449333Y41737620D02*
X152116000Y42213810D01*
X151877904Y41737620D02*
X151877904Y42737620D01*
X152258857Y42737620D01*
X152354095Y42690000D01*
X152401714Y42642381D01*
X152449333Y42547143D01*
X152449333Y42404286D01*
X152401714Y42309048D01*
X152354095Y42261429D01*
X152258857Y42213810D01*
X151877904Y42213810D01*
X153449333Y41832858D02*
X153401714Y41785239D01*
X153258857Y41737620D01*
X153163619Y41737620D01*
X153020761Y41785239D01*
X152925523Y41880477D01*
X152877904Y41975715D01*
X152830285Y42166191D01*
X152830285Y42309048D01*
X152877904Y42499524D01*
X152925523Y42594762D01*
X153020761Y42690000D01*
X153163619Y42737620D01*
X153258857Y42737620D01*
X153401714Y42690000D01*
X153449333Y42642381D01*
X154401714Y41737620D02*
X153830285Y41737620D01*
X154116000Y41737620D02*
X154116000Y42737620D01*
X154020761Y42594762D01*
X153925523Y42499524D01*
X153830285Y42451905D01*
%TO.C,SW1*%
X187671666Y121509239D02*
X187814523Y121461620D01*
X188052619Y121461620D01*
X188147857Y121509239D01*
X188195476Y121556858D01*
X188243095Y121652096D01*
X188243095Y121747334D01*
X188195476Y121842572D01*
X188147857Y121890191D01*
X188052619Y121937810D01*
X187862142Y121985429D01*
X187766904Y122033048D01*
X187719285Y122080667D01*
X187671666Y122175905D01*
X187671666Y122271143D01*
X187719285Y122366381D01*
X187766904Y122414000D01*
X187862142Y122461620D01*
X188100238Y122461620D01*
X188243095Y122414000D01*
X188576428Y122461620D02*
X188814523Y121461620D01*
X189005000Y122175905D01*
X189195476Y121461620D01*
X189433571Y122461620D01*
X190338333Y121461620D02*
X189766904Y121461620D01*
X190052619Y121461620D02*
X190052619Y122461620D01*
X189957380Y122318762D01*
X189862142Y122223524D01*
X189766904Y122175905D01*
%TO.C,SW2*%
X200752666Y121509239D02*
X200895523Y121461620D01*
X201133619Y121461620D01*
X201228857Y121509239D01*
X201276476Y121556858D01*
X201324095Y121652096D01*
X201324095Y121747334D01*
X201276476Y121842572D01*
X201228857Y121890191D01*
X201133619Y121937810D01*
X200943142Y121985429D01*
X200847904Y122033048D01*
X200800285Y122080667D01*
X200752666Y122175905D01*
X200752666Y122271143D01*
X200800285Y122366381D01*
X200847904Y122414000D01*
X200943142Y122461620D01*
X201181238Y122461620D01*
X201324095Y122414000D01*
X201657428Y122461620D02*
X201895523Y121461620D01*
X202086000Y122175905D01*
X202276476Y121461620D01*
X202514571Y122461620D01*
X202847904Y122366381D02*
X202895523Y122414000D01*
X202990761Y122461620D01*
X203228857Y122461620D01*
X203324095Y122414000D01*
X203371714Y122366381D01*
X203419333Y122271143D01*
X203419333Y122175905D01*
X203371714Y122033048D01*
X202800285Y121461620D01*
X203419333Y121461620D01*
%TO.C,JLed1*%
X223251952Y40661620D02*
X223251952Y39947334D01*
X223204333Y39804477D01*
X223109095Y39709239D01*
X222966238Y39661620D01*
X222871000Y39661620D01*
X224204333Y39661620D02*
X223728142Y39661620D01*
X223728142Y40661620D01*
X224918619Y39709239D02*
X224823380Y39661620D01*
X224632904Y39661620D01*
X224537666Y39709239D01*
X224490047Y39804477D01*
X224490047Y40185429D01*
X224537666Y40280667D01*
X224632904Y40328286D01*
X224823380Y40328286D01*
X224918619Y40280667D01*
X224966238Y40185429D01*
X224966238Y40090191D01*
X224490047Y39994953D01*
X225823380Y39661620D02*
X225823380Y40661620D01*
X225823380Y39709239D02*
X225728142Y39661620D01*
X225537666Y39661620D01*
X225442428Y39709239D01*
X225394809Y39756858D01*
X225347190Y39852096D01*
X225347190Y40137810D01*
X225394809Y40233048D01*
X225442428Y40280667D01*
X225537666Y40328286D01*
X225728142Y40328286D01*
X225823380Y40280667D01*
X226823380Y39661620D02*
X226251952Y39661620D01*
X226537666Y39661620D02*
X226537666Y40661620D01*
X226442428Y40518762D01*
X226347190Y40423524D01*
X226251952Y40375905D01*
%TD*%
M02*
