M48
; DRILL file {KiCad (5.1.6)-1} date 08/19/21 12:25:31
; FORMAT={3:3/ absolute / metric / keep zeros}
; #@! TF.CreationDate,2021-08-19T12:25:31+02:00
; #@! TF.GenerationSoftware,Kicad,Pcbnew,(5.1.6)-1
; #@! TF.FileFunction,Plated,1,2,PTH
FMAT,2
METRIC
T1C0.400
T2C0.500
T3C0.550
T4C0.600
T5C0.762
T6C0.850
T7C1.000
T8C1.100
T9C1.200
T10C5.800
%
G90
G05
T1
X090505Y030506
X091775Y011837
X126573Y064669
X126700Y126137
X126700Y057938
X126827Y101372
X126954Y093752
X148417Y010948
X202642Y068564
X207664Y097382
X212609Y123004
X213798Y115874
X214613Y102453
T2
X141905Y144696
X141915Y140696
X131526Y090196
X131536Y086196
X136596Y074130
X136606Y070130
X142184Y109690
X142194Y105690
X131262Y074130
X131272Y070130
X131237Y144696
X131247Y140696
X136860Y090196
X136870Y086196
X141930Y074130
X141940Y070130
X131272Y054128
X131282Y050128
X141940Y054128
X141950Y050128
X136850Y109690
X136860Y105690
X142397Y125021
X142407Y121021
X136606Y054128
X136616Y050128
X131516Y109690
X131526Y105690
X137063Y125021
X137073Y121021
X129304Y038624
X133304Y038634
X136571Y144696
X136581Y140696
X142194Y090196
X142204Y086196
X131729Y125021
X131739Y121021
T3
X136571Y136716
X142204Y094176
X131739Y129001
X141905Y136716
X131536Y094176
X136596Y066150
X142184Y101710
X131262Y066150
X131237Y136716
X136870Y094176
X141930Y066150
X131282Y058108
X141950Y058108
X136850Y101710
X142407Y129001
X136616Y058108
X131516Y101710
X137073Y129001
X137284Y038624
T4
X096982Y029490
X096982Y021870
X104602Y029490
X104602Y021870
X109682Y029490
X109682Y021870
X114762Y029490
X114762Y021870
X128224Y014758
X128224Y007138
X133304Y014758
X133304Y007138
X138384Y014758
X138384Y007138
X146004Y014758
X146004Y007138
X210012Y120168
X210012Y112668
X104348Y065558
X104348Y057938
X111968Y065558
X111968Y057938
X117048Y065558
X117048Y057938
X122128Y065558
X122128Y057938
X104094Y101626
X104094Y094006
X111714Y101626
X111714Y094006
X116794Y101626
X116794Y094006
X121874Y101626
X121874Y094006
X164292Y014758
X164292Y007138
X169372Y014758
X169372Y007138
X174452Y014758
X174452Y007138
X182072Y014758
X182072Y007138
X103840Y136486
X103840Y128866
X111460Y136486
X111460Y128866
X116540Y136486
X116540Y128866
X121620Y136486
X121620Y128866
X181310Y119914
X181310Y112414
T5
X150068Y057938
X157688Y057938
X149560Y140234
X157180Y140234
X149814Y066320
X157434Y066320
X203154Y149632
X210774Y149632
X149560Y102134
X157180Y102134
X149814Y073940
X157434Y073940
X149560Y085878
X157180Y085878
X150068Y050318
X157688Y050318
X149560Y105944
X157180Y105944
X150068Y042190
X157688Y042190
X181310Y108992
X188930Y108992
X202392Y108992
X210012Y108992
X149560Y128804
X157180Y128804
X149560Y109754
X157180Y109754
X150068Y054128
X157688Y054128
X149560Y093498
X157180Y093498
X163657Y148997
X163657Y141377
X149560Y144044
X157180Y144044
X149814Y070130
X157434Y070130
X149560Y124994
X157180Y124994
X149560Y089688
X157180Y089688
X149560Y121184
X157180Y121184
X149560Y136424
X157180Y136424
X150068Y046254
X157688Y046254
T6
X187660Y062764
X187660Y060224
X187660Y057684
X187660Y055144
X187660Y052604
X187660Y050064
X187660Y047524
X187660Y044984
X187660Y042444
X187660Y039904
X187660Y037364
X187660Y034824
X187660Y032284
X187660Y029744
X187660Y027204
X202900Y062764
X202900Y060224
X202900Y057684
X202900Y055144
X202900Y052604
X202900Y050064
X202900Y047524
X202900Y044984
X202900Y042444
X202900Y039904
X202900Y037364
X202900Y034824
X202900Y032284
X202900Y029744
X202900Y027204
T7
X224871Y047524
X224871Y044984
X224871Y042444
X156164Y152934
X158704Y152934
X161244Y152934
X163784Y152934
X166324Y152934
X168864Y152934
X171404Y152934
X173944Y152934
X176484Y152934
X179024Y152934
X181564Y152934
X184104Y152934
X186644Y152934
X189184Y152934
X191724Y152934
X194264Y152934
X169372Y099340
X171912Y099340
X174452Y099340
X176992Y099340
X179532Y099340
X179532Y084100
X182072Y099340
X182072Y084100
X184612Y099340
X184612Y084100
X187152Y099340
X187152Y084100
X189692Y099340
X189692Y084100
X192232Y099340
X192232Y084100
X194772Y099340
X194772Y084100
X197312Y099340
X197312Y084100
X199852Y099340
X202392Y099340
X204932Y099340
X207472Y099340
X224998Y031268
X224998Y028728
X224998Y026188
X224998Y023648
X206124Y012980
X206124Y007900
X221364Y015520
X221364Y010440
T8
X100411Y067082
X100411Y056922
X093299Y030506
X093299Y020346
X188168Y015520
X188168Y005360
X198836Y119914
X198836Y115414
X205336Y119914
X205336Y115414
X095585Y067082
X095585Y056922
X095966Y137694
X095966Y127534
X185755Y119914
X185755Y115414
X192255Y119914
X192255Y115414
X152354Y015774
X152354Y005614
X100284Y137694
X100284Y127534
X095712Y103150
X095712Y092990
X100157Y103150
X100157Y092990
X088092Y030506
X088092Y020346
T9
X019590Y133946
X019590Y128866
X019590Y123776
X034830Y136486
X034830Y131406
X034830Y126316
X019082Y064034
X019082Y058954
X019082Y053864
X034322Y066574
X034322Y061494
X034322Y056404
X019590Y017298
X019590Y012218
X034830Y019838
X034830Y014758
X019590Y027458
X019590Y022378
X034830Y029998
X034830Y024918
X019336Y099340
X019336Y094260
X019336Y089170
X034576Y101880
X034576Y096800
X034576Y091710
T10
X006000Y154000
X006000Y006000
X214000Y026000
X227000Y154000
T2
G00X058012Y029236
M15
G01X057212Y029236
M16
G05
G00X058012Y021616
M15
G01X057212Y021616
M16
G05
G00X063092Y029236
M15
G01X062292Y029236
M16
G05
G00X063092Y021616
M15
G01X062292Y021616
M16
G05
G00X068172Y029236
M15
G01X067372Y029236
M16
G05
G00X068172Y021616
M15
G01X067372Y021616
M16
G05
G00X073252Y029236
M15
G01X072452Y029236
M16
G05
G00X073252Y021616
M15
G01X072452Y021616
M16
G05
G00X078332Y029236
M15
G01X077532Y029236
M16
G05
G00X078332Y021616
M15
G01X077532Y021616
M16
G05
G00X083412Y029236
M15
G01X082612Y029236
M16
G05
G00X083412Y021616
M15
G01X082612Y021616
M16
G05
G00X065378Y065812
M15
G01X064578Y065812
M16
G05
G00X065378Y058192
M15
G01X064578Y058192
M16
G05
G00X070458Y065812
M15
G01X069658Y065812
M16
G05
G00X070458Y058192
M15
G01X069658Y058192
M16
G05
G00X075538Y065812
M15
G01X074738Y065812
M16
G05
G00X075538Y058192
M15
G01X074738Y058192
M16
G05
G00X080618Y065812
M15
G01X079818Y065812
M16
G05
G00X080618Y058192
M15
G01X079818Y058192
M16
G05
G00X085698Y065812
M15
G01X084898Y065812
M16
G05
G00X085698Y058192
M15
G01X084898Y058192
M16
G05
G00X090778Y065812
M15
G01X089978Y065812
M16
G05
G00X090778Y058192
M15
G01X089978Y058192
M16
G05
G00X065886Y136486
M15
G01X065086Y136486
M16
G05
G00X065886Y128866
M15
G01X065086Y128866
M16
G05
G00X070966Y136486
M15
G01X070166Y136486
M16
G05
G00X070966Y128866
M15
G01X070166Y128866
M16
G05
G00X076046Y136486
M15
G01X075246Y136486
M16
G05
G00X076046Y128866
M15
G01X075246Y128866
M16
G05
G00X081126Y136486
M15
G01X080326Y136486
M16
G05
G00X081126Y128866
M15
G01X080326Y128866
M16
G05
G00X086206Y136486
M15
G01X085406Y136486
M16
G05
G00X086206Y128866
M15
G01X085406Y128866
M16
G05
G00X091286Y136486
M15
G01X090486Y136486
M16
G05
G00X091286Y128866
M15
G01X090486Y128866
M16
G05
G00X065632Y101880
M15
G01X064832Y101880
M16
G05
G00X065632Y094260
M15
G01X064832Y094260
M16
G05
G00X070712Y101880
M15
G01X069912Y101880
M16
G05
G00X070712Y094260
M15
G01X069912Y094260
M16
G05
G00X075792Y101880
M15
G01X074992Y101880
M16
G05
G00X075792Y094260
M15
G01X074992Y094260
M16
G05
G00X080872Y101880
M15
G01X080072Y101880
M16
G05
G00X080872Y094260
M15
G01X080072Y094260
M16
G05
G00X085952Y101880
M15
G01X085152Y101880
M16
G05
G00X085952Y094260
M15
G01X085152Y094260
M16
G05
G00X091032Y101880
M15
G01X090232Y101880
M16
G05
G00X091032Y094260
M15
G01X090232Y094260
M16
G05
T0
M30
