%TF.GenerationSoftware,KiCad,Pcbnew,(5.1.6)-1*%
%TF.CreationDate,2021-08-19T12:25:39+02:00*%
%TF.ProjectId,_Asclepios-Ohmmeter-v2,b5417363-6c65-4706-996f-732d4f686d6d,rev?*%
%TF.SameCoordinates,PXc65d40PYa4fc540*%
%TF.FileFunction,Soldermask,Bot*%
%TF.FilePolarity,Negative*%
%FSLAX46Y46*%
G04 Gerber Fmt 4.6, Leading zero omitted, Abs format (unit mm)*
G04 Created by KiCad (PCBNEW (5.1.6)-1) date 2021-08-19 12:25:39*
%MOMM*%
%LPD*%
G01*
G04 APERTURE LIST*
%ADD10C,2.500000*%
%ADD11C,2.000000*%
%ADD12O,2.200000X2.200000*%
%ADD13R,2.200000X2.200000*%
%ADD14O,1.700000X1.700000*%
%ADD15R,1.700000X1.700000*%
%ADD16R,2.000000X2.000000*%
%ADD17C,1.600000*%
%ADD18O,1.600000X1.600000*%
%ADD19R,1.600000X1.600000*%
%ADD20C,1.800000*%
%ADD21C,1.524000*%
G04 APERTURE END LIST*
D10*
%TO.C,J1*%
X34830000Y126316000D03*
X19590000Y123776000D03*
X34830000Y131406000D03*
X34830000Y136486000D03*
X19590000Y128866000D03*
X19590000Y133946000D03*
%TD*%
%TO.C,J2*%
X34576000Y91710000D03*
X19336000Y89170000D03*
X34576000Y96800000D03*
X34576000Y101880000D03*
X19336000Y94260000D03*
X19336000Y99340000D03*
%TD*%
%TO.C,J3*%
X34322000Y56404000D03*
X19082000Y53864000D03*
X34322000Y61494000D03*
X34322000Y66574000D03*
X19082000Y58954000D03*
X19082000Y64034000D03*
%TD*%
%TO.C,JC1*%
X34830000Y14758000D03*
X34830000Y19838000D03*
X19590000Y12218000D03*
X19590000Y17298000D03*
%TD*%
%TO.C,JCI1*%
X34830000Y24918000D03*
X34830000Y29998000D03*
X19590000Y22378000D03*
X19590000Y27458000D03*
%TD*%
D11*
%TO.C,K41*%
X90886000Y136486000D03*
X85806000Y136486000D03*
X80726000Y136486000D03*
X75646000Y136486000D03*
X70566000Y136486000D03*
X65486000Y136486000D03*
X65486000Y128866000D03*
X70566000Y128866000D03*
X75646000Y128866000D03*
X80726000Y128866000D03*
X85806000Y128866000D03*
X90886000Y128866000D03*
%TD*%
%TO.C,K42*%
X90632000Y101880000D03*
X85552000Y101880000D03*
X80472000Y101880000D03*
X75392000Y101880000D03*
X70312000Y101880000D03*
X65232000Y101880000D03*
X65232000Y94260000D03*
X70312000Y94260000D03*
X75392000Y94260000D03*
X80472000Y94260000D03*
X85552000Y94260000D03*
X90632000Y94260000D03*
%TD*%
%TO.C,K43*%
X90378000Y65812000D03*
X85298000Y65812000D03*
X80218000Y65812000D03*
X75138000Y65812000D03*
X70058000Y65812000D03*
X64978000Y65812000D03*
X64978000Y58192000D03*
X70058000Y58192000D03*
X75138000Y58192000D03*
X80218000Y58192000D03*
X85298000Y58192000D03*
X90378000Y58192000D03*
%TD*%
%TO.C,KC1*%
X83012000Y29236000D03*
X77932000Y29236000D03*
X72852000Y29236000D03*
X67772000Y29236000D03*
X62692000Y29236000D03*
X57612000Y29236000D03*
X57612000Y21616000D03*
X62692000Y21616000D03*
X67772000Y21616000D03*
X72852000Y21616000D03*
X77932000Y21616000D03*
X83012000Y21616000D03*
%TD*%
D12*
%TO.C,DI1*%
X93299000Y20346000D03*
D13*
X93299000Y30506000D03*
%TD*%
D14*
%TO.C,JUSB1*%
X224998000Y31268000D03*
X224998000Y28728000D03*
X224998000Y26188000D03*
D15*
X224998000Y23648000D03*
%TD*%
D11*
%TO.C,Q16*%
X131272000Y54128000D03*
X131282000Y58108000D03*
D16*
X131282000Y50128000D03*
%TD*%
D11*
%TO.C,Q19*%
X133304000Y38634000D03*
X137284000Y38624000D03*
D16*
X129304000Y38624000D03*
%TD*%
D11*
%TO.C,Q18*%
X141940000Y54128000D03*
X141950000Y58108000D03*
D16*
X141950000Y50128000D03*
%TD*%
D11*
%TO.C,Q17*%
X136606000Y54128000D03*
X136616000Y58108000D03*
D16*
X136616000Y50128000D03*
%TD*%
D11*
%TO.C,Q15*%
X141940000Y70130000D03*
X141930000Y66150000D03*
D16*
X141930000Y74130000D03*
%TD*%
D11*
%TO.C,Q14*%
X136606000Y70130000D03*
X136596000Y66150000D03*
D16*
X136596000Y74130000D03*
%TD*%
D11*
%TO.C,Q13*%
X131272000Y70130000D03*
X131262000Y66150000D03*
D16*
X131262000Y74130000D03*
%TD*%
D11*
%TO.C,Q11*%
X136860000Y90196000D03*
X136870000Y94176000D03*
D16*
X136870000Y86196000D03*
%TD*%
D11*
%TO.C,Q12*%
X142194000Y90196000D03*
X142204000Y94176000D03*
D16*
X142204000Y86196000D03*
%TD*%
D11*
%TO.C,Q9*%
X142194000Y105690000D03*
X142184000Y101710000D03*
D16*
X142184000Y109690000D03*
%TD*%
D11*
%TO.C,Q8*%
X136860000Y105690000D03*
X136850000Y101710000D03*
D16*
X136850000Y109690000D03*
%TD*%
D11*
%TO.C,Q7*%
X131526000Y105690000D03*
X131516000Y101710000D03*
D16*
X131516000Y109690000D03*
%TD*%
D11*
%TO.C,Q10*%
X131526000Y90196000D03*
X131536000Y94176000D03*
D16*
X131536000Y86196000D03*
%TD*%
D11*
%TO.C,Q5*%
X137063000Y125021200D03*
X137073000Y129001200D03*
D16*
X137073000Y121021200D03*
%TD*%
D11*
%TO.C,Q6*%
X142397000Y125021200D03*
X142407000Y129001200D03*
D16*
X142407000Y121021200D03*
%TD*%
D11*
%TO.C,Q3*%
X141915000Y140695800D03*
X141905000Y136715800D03*
D16*
X141905000Y144695800D03*
%TD*%
D11*
%TO.C,Q2*%
X136581000Y140695800D03*
X136571000Y136715800D03*
D16*
X136571000Y144695800D03*
%TD*%
D11*
%TO.C,Q1*%
X131247000Y140695800D03*
X131237000Y136715800D03*
D16*
X131237000Y144695800D03*
%TD*%
D11*
%TO.C,Q4*%
X131729000Y125021200D03*
X131739000Y129001200D03*
D16*
X131739000Y121021200D03*
%TD*%
D17*
%TO.C,C1*%
X181310000Y119914000D03*
D18*
X181310000Y112414000D03*
%TD*%
D17*
%TO.C,C2*%
X210012000Y120168000D03*
D18*
X210012000Y112668000D03*
%TD*%
D12*
%TO.C,D21*%
X100284000Y127534000D03*
D13*
X100284000Y137694000D03*
%TD*%
D12*
%TO.C,D22*%
X100157000Y92990000D03*
D13*
X100157000Y103150000D03*
%TD*%
D12*
%TO.C,D23*%
X100411000Y56922000D03*
D13*
X100411000Y67082000D03*
%TD*%
D12*
%TO.C,D41*%
X95966000Y127534000D03*
D13*
X95966000Y137694000D03*
%TD*%
D12*
%TO.C,D42*%
X95712000Y92990000D03*
D13*
X95712000Y103150000D03*
%TD*%
D12*
%TO.C,D43*%
X95585000Y56922000D03*
D13*
X95585000Y67082000D03*
%TD*%
D12*
%TO.C,DA1*%
X152354000Y15774000D03*
D13*
X152354000Y5614000D03*
%TD*%
D12*
%TO.C,DC1*%
X88092000Y20346000D03*
D13*
X88092000Y30506000D03*
%TD*%
D12*
%TO.C,DS1*%
X188168000Y5360000D03*
D13*
X188168000Y15520000D03*
%TD*%
D18*
%TO.C,JA1*%
X187660000Y62764000D03*
X202900000Y62764000D03*
X187660000Y27204000D03*
X202900000Y60224000D03*
X187660000Y29744000D03*
X202900000Y57684000D03*
X187660000Y32284000D03*
X202900000Y55144000D03*
X187660000Y34824000D03*
X202900000Y52604000D03*
X187660000Y37364000D03*
X202900000Y50064000D03*
X187660000Y39904000D03*
X202900000Y47524000D03*
X187660000Y42444000D03*
X202900000Y44984000D03*
X187660000Y44984000D03*
X202900000Y42444000D03*
X187660000Y47524000D03*
X202900000Y39904000D03*
X187660000Y50064000D03*
X202900000Y37364000D03*
X187660000Y52604000D03*
X202900000Y34824000D03*
X187660000Y55144000D03*
X202900000Y32284000D03*
X187660000Y57684000D03*
X202900000Y29744000D03*
X187660000Y60224000D03*
D19*
X202900000Y27204000D03*
%TD*%
D14*
%TO.C,JE1*%
X156164000Y152934000D03*
X158704000Y152934000D03*
X161244000Y152934000D03*
X163784000Y152934000D03*
X166324000Y152934000D03*
X168864000Y152934000D03*
X171404000Y152934000D03*
X173944000Y152934000D03*
X176484000Y152934000D03*
X179024000Y152934000D03*
X181564000Y152934000D03*
X184104000Y152934000D03*
X186644000Y152934000D03*
X189184000Y152934000D03*
X191724000Y152934000D03*
D15*
X194264000Y152934000D03*
%TD*%
D10*
%TO.C,JEX1*%
X206124000Y12980000D03*
X206124000Y7900000D03*
X221364000Y15520000D03*
X221364000Y10440000D03*
%TD*%
D18*
%TO.C,JM1*%
X169372000Y99340000D03*
X207472000Y99340000D03*
X171912000Y99340000D03*
X174452000Y99340000D03*
X176992000Y99340000D03*
X179532000Y99340000D03*
X197312000Y84100000D03*
X182072000Y99340000D03*
X194772000Y84100000D03*
X184612000Y99340000D03*
X192232000Y84100000D03*
X187152000Y99340000D03*
X189692000Y84100000D03*
X189692000Y99340000D03*
X187152000Y84100000D03*
X192232000Y99340000D03*
X184612000Y84100000D03*
X194772000Y99340000D03*
X182072000Y84100000D03*
X197312000Y99340000D03*
X179532000Y84100000D03*
X199852000Y99340000D03*
X202392000Y99340000D03*
X204932000Y99340000D03*
%TD*%
D20*
%TO.C,K21*%
X121620000Y128866000D03*
X121620000Y136486000D03*
X116540000Y136486000D03*
X116540000Y128866000D03*
X111460000Y136486000D03*
X111460000Y128866000D03*
X103840000Y136486000D03*
X103840000Y128866000D03*
%TD*%
%TO.C,K22*%
X121874000Y94006000D03*
X121874000Y101626000D03*
X116794000Y101626000D03*
X116794000Y94006000D03*
X111714000Y101626000D03*
X111714000Y94006000D03*
X104094000Y101626000D03*
X104094000Y94006000D03*
%TD*%
%TO.C,K23*%
X122128000Y57938000D03*
X122128000Y65558000D03*
X117048000Y65558000D03*
X117048000Y57938000D03*
X111968000Y65558000D03*
X111968000Y57938000D03*
X104348000Y65558000D03*
X104348000Y57938000D03*
%TD*%
%TO.C,KA1*%
X128224000Y14758000D03*
X128224000Y7138000D03*
X133304000Y7138000D03*
X133304000Y14758000D03*
X138384000Y7138000D03*
X138384000Y14758000D03*
X146004000Y7138000D03*
X146004000Y14758000D03*
%TD*%
%TO.C,Ki1*%
X114762000Y21870000D03*
X114762000Y29490000D03*
X109682000Y29490000D03*
X109682000Y21870000D03*
X104602000Y29490000D03*
X104602000Y21870000D03*
X96982000Y29490000D03*
X96982000Y21870000D03*
%TD*%
%TO.C,KS1*%
X164292000Y14758000D03*
X164292000Y7138000D03*
X169372000Y7138000D03*
X169372000Y14758000D03*
X174452000Y7138000D03*
X174452000Y14758000D03*
X182072000Y7138000D03*
X182072000Y14758000D03*
%TD*%
D21*
%TO.C,R1*%
X149560000Y136424000D03*
X157180000Y136424000D03*
%TD*%
%TO.C,R2*%
X149560000Y144044000D03*
X157180000Y144044000D03*
%TD*%
%TO.C,R3*%
X149560000Y140234000D03*
X157180000Y140234000D03*
%TD*%
%TO.C,R4*%
X149560000Y121184000D03*
X157180000Y121184000D03*
%TD*%
%TO.C,R5*%
X149560000Y128804000D03*
X157180000Y128804000D03*
%TD*%
%TO.C,R6*%
X149560000Y124994000D03*
X157180000Y124994000D03*
%TD*%
%TO.C,R7*%
X149560000Y102134000D03*
X157180000Y102134000D03*
%TD*%
%TO.C,R8*%
X149560000Y109754000D03*
X157180000Y109754000D03*
%TD*%
%TO.C,R9*%
X149560000Y105944000D03*
X157180000Y105944000D03*
%TD*%
%TO.C,R10*%
X149560000Y85878000D03*
X157180000Y85878000D03*
%TD*%
%TO.C,R11*%
X149560000Y93498000D03*
X157180000Y93498000D03*
%TD*%
%TO.C,R12*%
X149560000Y89688000D03*
X157180000Y89688000D03*
%TD*%
%TO.C,R13*%
X149814000Y66320000D03*
X157434000Y66320000D03*
%TD*%
%TO.C,R14*%
X149814000Y73940000D03*
X157434000Y73940000D03*
%TD*%
%TO.C,R15*%
X149814000Y70130000D03*
X157434000Y70130000D03*
%TD*%
%TO.C,R16*%
X150068000Y50318000D03*
X157688000Y50318000D03*
%TD*%
%TO.C,R17*%
X150068000Y57938000D03*
X157688000Y57938000D03*
%TD*%
%TO.C,R18*%
X150068000Y54128000D03*
X157688000Y54128000D03*
%TD*%
%TO.C,R19*%
X150068000Y46254000D03*
X157688000Y46254000D03*
%TD*%
%TO.C,R22*%
X163657000Y141377000D03*
X163657000Y148997000D03*
%TD*%
%TO.C,R23*%
X210774000Y149632000D03*
X203154000Y149632000D03*
%TD*%
%TO.C,Rb1*%
X188930000Y108992000D03*
X181310000Y108992000D03*
%TD*%
%TO.C,Rb2*%
X202392000Y108992000D03*
X210012000Y108992000D03*
%TD*%
%TO.C,RC1*%
X150068000Y42190000D03*
X157688000Y42190000D03*
%TD*%
D11*
%TO.C,SW1*%
X192255000Y119914000D03*
X192255000Y115414000D03*
X185755000Y119914000D03*
X185755000Y115414000D03*
%TD*%
%TO.C,SW2*%
X205336000Y119914000D03*
X205336000Y115414000D03*
X198836000Y119914000D03*
X198836000Y115414000D03*
%TD*%
D14*
%TO.C,JLed1*%
X224871000Y47524000D03*
X224871000Y44984000D03*
D15*
X224871000Y42444000D03*
%TD*%
M02*
